<?xml version="1.0" encoding="UTF-8"?>
<svg id="Layer_2" data-name="Layer 2" xmlns="http://www.w3.org/2000/svg" viewBox="0 0 112.07 103.62">
  <defs>
    <style>
      .cls-1 {
        fill: none;
        stroke: #231f20;
        stroke-miterlimit: 10;
        stroke-width: 4px;
      }
    </style>
  </defs>
  <g id="Layer_1-2" data-name="Layer 1">
    <path class="cls-1" d="m110.07,76.03c0,14.14-11.47,25.6-25.62,25.6s-25.62-11.46-25.62-25.6,11.47-25.6,25.62-25.6,25.62,11.46,25.62,25.6Zm-80.46,1.13c0,7.62-6.18,13.79-13.8,13.79s-13.8-6.17-13.8-13.79,6.18-13.79,13.8-13.79,13.8,6.17,13.8,13.79ZM96,20.96c0,10.47-8.49,18.96-18.97,18.96s-18.97-8.49-18.97-18.96S66.56,2,77.03,2s18.97,8.49,18.97,18.96Zm-3.03,37.88c0,22.1-17.93,40.02-40.05,40.02S12.88,80.93,12.88,58.83,30.81,18.82,52.92,18.82s40.05,17.92,40.05,40.02Z"/>
  </g>
</svg>