<?xml version="1.0" encoding="UTF-8" standalone="no"?><!DOCTYPE svg PUBLIC "-//W3C//DTD SVG 1.1//EN" "http://www.w3.org/Graphics/SVG/1.1/DTD/svg11.dtd"><svg width="100%" height="100%" viewBox="0 0 328 286" version="1.1" xmlns="http://www.w3.org/2000/svg" xmlns:xlink="http://www.w3.org/1999/xlink" xml:space="preserve" xmlns:serif="http://www.serif.com/" style="fill-rule:evenodd;clip-rule:evenodd;stroke-linejoin:round;stroke-miterlimit:2;"><g><path d="M19.658,163.78c-6.667,-0 -13.201,0.29 -19.568,0.83c56.009,4.79 98.709,29.76 98.709,59.86c-0,30.1 -42.7,55.08 -98.709,59.87c6.367,0.54 12.901,0.83 19.568,0.83c65.323,0 118.277,-27.17 118.277,-60.7c-0,-33.52 -52.954,-60.69 -118.277,-60.69Z" style="fill:#030404;fill-rule:nonzero;"/><path d="M114.134,163.78c-6.667,-0 -13.202,0.29 -19.568,0.83c56.008,4.79 98.704,29.76 98.704,59.86c-0,30.1 -42.696,55.08 -98.704,59.87c6.366,0.54 12.901,0.83 19.568,0.83c65.326,0 118.276,-27.17 118.276,-60.7c0,-33.52 -52.95,-60.69 -118.276,-60.69Z" style="fill:#030404;fill-rule:nonzero;"/><path d="M208.61,163.78c-6.67,-0 -13.2,0.29 -19.57,0.83c56.01,4.79 98.71,29.76 98.71,59.86c-0,30.1 -42.7,55.08 -98.71,59.87c6.37,0.54 12.9,0.83 19.57,0.83c65.32,0 118.28,-27.17 118.28,-60.7c-0,-33.52 -52.96,-60.69 -118.28,-60.69Z" style="fill:#030404;fill-rule:nonzero;"/><path d="M307.32,-0c6.66,-0 13.2,0.29 19.57,0.84c-56.01,4.78 -98.71,29.76 -98.71,59.86c0,30.1 42.7,55.08 98.71,59.86c-6.37,0.55 -12.91,0.83 -19.57,0.83c-65.32,-0 -118.28,-27.17 -118.28,-60.69c0,-33.52 52.96,-60.7 118.28,-60.7Z" style="fill:#030404;fill-rule:nonzero;"/><path d="M212.84,-0c6.67,-0 13.2,0.29 19.57,0.84c-56.01,4.78 -98.708,29.76 -98.708,59.86c0,30.1 42.698,55.08 98.708,59.86c-6.37,0.55 -12.9,0.83 -19.57,0.83c-65.32,-0 -118.274,-27.17 -118.274,-60.69c0,-33.52 52.954,-60.7 118.274,-60.7Z" style="fill:#030404;fill-rule:nonzero;"/><path d="M118.367,-0c6.667,-0 13.202,0.29 19.568,0.84c-56.009,4.78 -98.708,29.76 -98.708,59.86c0,30.1 42.699,55.08 98.708,59.86c-6.366,0.55 -12.901,0.83 -19.568,0.83c-65.322,-0 -118.277,-27.17 -118.277,-60.69c0,-33.52 52.955,-60.7 118.277,-60.7Z" style="fill:#030404;fill-rule:nonzero;"/></g></svg>