<?xml version="1.0" encoding="UTF-8" standalone="no"?><!DOCTYPE svg PUBLIC "-//W3C//DTD SVG 1.1//EN" "http://www.w3.org/Graphics/SVG/1.1/DTD/svg11.dtd"><svg width="100%" height="100%" viewBox="0 0 76 50" version="1.1" xmlns="http://www.w3.org/2000/svg" xmlns:xlink="http://www.w3.org/1999/xlink" xml:space="preserve" xmlns:serif="http://www.serif.com/" style="fill-rule:evenodd;clip-rule:evenodd;stroke-linejoin:round;stroke-miterlimit:2;"><path d="M65.398,8.023c0.102,0.051 0.176,0.102 0.25,0.148c0.051,0.051 0.125,0.102 0.199,0.176c2.875,2.102 5.399,4.676 7.149,7.676c1.55,2.676 2.5,5.676 2.5,8.949l-0,0.051c-0,3.301 -0.95,6.324 -2.524,9c-1.801,3.051 -4.375,5.648 -7.301,7.75l-0.074,0.051c-0.176,0.148 -0.426,0.301 -0.699,0.476c-0.25,0.2 -0.477,0.352 -0.699,0.477c-3.649,2.352 -7.75,4.051 -12.023,5.199c-4.649,1.25 -9.5,1.824 -14.176,1.824c-4.676,0 -9.524,-0.574 -14.176,-1.824c-4.274,-1.148 -8.375,-2.851 -12.023,-5.199c-0.199,-0.125 -0.449,-0.274 -0.699,-0.449c-0.25,-0.176 -0.477,-0.352 -0.7,-0.5l-0.074,-0.051c-2.926,-2.102 -5.5,-4.699 -7.273,-7.75c-1.602,-2.676 -2.551,-5.699 -2.551,-9l-0,-0.051c-0,-3.273 0.949,-6.273 2.5,-8.949c1.75,-3 4.301,-5.574 7.148,-7.676c0.075,-0.074 0.149,-0.125 0.227,-0.176c0.051,-0.05 0.148,-0.101 0.226,-0.148c0.2,-0.149 0.399,-0.274 0.575,-0.399c0.199,-0.125 0.398,-0.273 0.625,-0.425c3.648,-2.325 7.75,-4.024 12.023,-5.176c4.625,-1.25 9.476,-1.824 14.148,-1.824l0.05,-0c4.676,-0 9.524,0.574 14.176,1.824c4.25,1.148 8.352,2.851 12,5.176c0.227,0.148 0.426,0.3 0.625,0.425c0.176,0.125 0.375,0.25 0.575,0.399l-0.004,-0.004Zm-0.301,0.898c-0.051,-0.023 -0.074,-0.074 -0.125,-0.101c-0.023,-0 -0.051,-0 -0.074,-0.024c-0.176,-0.125 -0.375,-0.273 -0.602,-0.425c-0.199,-0.125 -0.398,-0.274 -0.601,-0.399c-3.551,-2.273 -7.574,-3.949 -11.75,-5.051c-4.574,-1.226 -9.352,-1.8 -13.926,-1.8l-0.051,-0c-4.574,-0 -9.351,0.574 -13.926,1.8c-4.176,1.102 -8.199,2.774 -11.75,5.051c-0.176,0.125 -0.398,0.274 -0.601,0.399c-0.2,0.148 -0.399,0.273 -0.575,0.425c-0.023,0 -0.05,0.024 -0.074,0.051c-0.051,0 -0.101,0.051 -0.148,0.074c-0.051,0.024 -0.075,0.051 -0.125,0.102l-0.051,0.051c-2.774,2.023 -5.227,4.523 -6.926,7.426c-1.477,2.523 -2.375,5.375 -2.375,8.476l0,0.051c0,3.125 0.899,5.977 2.398,8.551c1.727,2.898 4.227,5.426 7.024,7.449l0.074,0.051c0.25,0.176 0.477,0.324 0.699,0.476c0.2,0.149 0.426,0.301 0.676,0.45c3.574,2.3 7.574,3.949 11.773,5.074c4.551,1.226 9.324,1.801 13.926,1.801c4.602,-0 9.375,-0.575 13.949,-1.801c4.176,-1.125 8.199,-2.774 11.75,-5.074c0.25,-0.149 0.5,-0.301 0.699,-0.45c0.176,-0.125 0.399,-0.273 0.676,-0.476l0.051,-0.051c2.824,-2.023 5.324,-4.523 7.051,-7.449c1.5,-2.551 2.398,-5.426 2.398,-8.551l0,-0.051c0,-3.101 -0.875,-5.949 -2.375,-8.476c-1.676,-2.899 -4.125,-5.399 -6.898,-7.426c-0.024,-0 -0.051,-0.024 -0.075,-0.051c-0.023,-0.051 -0.074,-0.074 -0.125,-0.102l0.009,0Zm-14.926,35.574c1.649,-0.398 3.301,-0.875 4.899,-1.476c1.648,-0.625 3.273,-1.324 4.8,-2.149c-0.851,-0.226 -1.699,-0.425 -2.55,-0.625c-1.125,-0.226 -2.274,-0.449 -3.375,-0.625c-0.25,0.426 -0.524,0.852 -0.801,1.274c-0.324,0.5 -0.676,0.976 -1.051,1.449c-0.477,0.625 -1,1.199 -1.551,1.773l-0.375,0.375l0.004,0.004Zm5.199,-0.601c-2.175,0.801 -4.425,1.426 -6.699,1.898c-0.176,0.024 -0.324,-0.023 -0.449,-0.175c-0.148,-0.176 -0.125,-0.477 0.074,-0.626c0.551,-0.476 1.074,-0.976 1.602,-1.5c0.523,-0.55 1,-1.125 1.476,-1.726c0.352,-0.449 0.7,-0.926 1,-1.399c0.325,-0.476 0.625,-0.976 0.926,-1.5c0.102,-0.148 0.274,-0.25 0.477,-0.226c1.25,0.199 2.5,0.449 3.75,0.699c1.226,0.274 2.449,0.574 3.676,0.926c0.125,0.023 0.226,0.102 0.3,0.199c0.125,0.227 0.051,0.5 -0.175,0.649c-1.875,1.074 -3.875,2 -5.95,2.773l-0.008,0.008Zm-15.449,-39.699l0,7.426c1.7,-0.024 3.426,-0.102 5.149,-0.227c1.551,-0.101 3.125,-0.25 4.676,-0.449l-0.125,-0.176c-0.176,-0.25 -0.375,-0.5 -0.575,-0.773c-1.25,-1.602 -2.75,-3 -4.449,-4.051c-1.426,-0.852 -3,-1.477 -4.676,-1.75l0,-0Zm-0.925,7.898l-0,-8.476c0.023,-0.25 0.273,-0.426 0.523,-0.399c2,0.227 3.852,0.926 5.551,1.949c1.801,1.102 3.398,2.575 4.726,4.274c0.2,0.25 0.375,0.523 0.575,0.801c0.199,0.273 0.398,0.55 0.574,0.824c0.023,0.051 0.051,0.125 0.051,0.199c0.05,0.25 -0.149,0.477 -0.399,0.5c-1.824,0.25 -3.648,0.426 -5.476,0.551c-1.852,0.125 -3.727,0.199 -5.602,0.226l-0.051,0c-0.273,0 -0.476,-0.199 -0.476,-0.449l0.004,0Zm0.925,3.375l0,7.602l13.875,-0c-0.101,-1.449 -0.324,-2.899 -0.648,-4.352c-0.352,-1.398 -0.801,-2.801 -1.398,-4.148c-1.95,0.273 -3.899,0.476 -5.852,0.625c-1.977,0.148 -3.977,0.25 -5.977,0.273l0,0Zm-0.925,8.051l-0,-8.5c-0,-0.25 0.199,-0.476 0.449,-0.476c2.125,-0.024 4.25,-0.102 6.375,-0.274c2.051,-0.148 4.101,-0.375 6.125,-0.648c0.199,-0.051 0.426,0.074 0.5,0.273c0.676,1.477 1.199,3.023 1.601,4.625c0.375,1.625 0.602,3.273 0.7,4.949l-0,0.051c-0,0.274 -0.2,0.477 -0.45,0.477l-14.824,-0c-0.273,-0 -0.476,-0.2 -0.476,-0.477l-0,0Zm0.925,3.398l0,7.575c2,0.05 4,0.125 5.977,0.273c1.949,0.149 3.926,0.352 5.875,0.625c0.574,-1.351 1.023,-2.726 1.375,-4.148c0.324,-1.426 0.551,-2.875 0.648,-4.324l-13.875,-0.001Zm-0.925,8.024l-0,-8.5c-0,-0.25 0.199,-0.449 0.476,-0.449l14.824,-0c0.274,0.023 0.477,0.226 0.449,0.476c-0.074,1.676 -0.324,3.352 -0.699,4.977c-0.375,1.601 -0.898,3.148 -1.574,4.625c-0.102,0.199 -0.273,0.301 -0.5,0.273c-2.023,-0.273 -4.074,-0.5 -6.148,-0.648c-2.125,-0.176 -4.227,-0.25 -6.325,-0.274l-0.023,0c-0.273,0 -0.477,-0.226 -0.477,-0.476l-0.003,-0.004Zm0.925,3.398l0,7.426c1.676,-0.25 3.25,-0.875 4.676,-1.727c1.699,-1.05 3.199,-2.449 4.449,-4.074c0.2,-0.25 0.399,-0.5 0.575,-0.773l0.148,-0.176c-1.551,-0.199 -3.125,-0.352 -4.699,-0.449c-1.727,-0.125 -3.449,-0.199 -5.149,-0.227l0,0Zm-0.925,7.977l-0,-8.449c-0,-0.25 0.226,-0.45 0.476,-0.45c1.899,0.024 3.774,0.102 5.649,0.227c1.824,0.125 3.648,0.301 5.449,0.523c0.074,0.024 0.176,0.051 0.226,0.075c0.227,0.148 0.301,0.425 0.149,0.648c-0.176,0.274 -0.352,0.551 -0.574,0.852c-0.176,0.273 -0.375,0.55 -0.575,0.8c-1.324,1.7 -2.925,3.176 -4.726,4.274c-1.676,1.023 -3.524,1.699 -5.524,1.949l-0.074,0c-0.273,0 -0.476,-0.199 -0.476,-0.449l-0,-0Zm-2.926,-0.551l-0,-7.426c-1.699,0.024 -3.426,0.102 -5.149,0.227c-1.574,0.101 -3.125,0.25 -4.699,0.449l0.149,0.176c0.175,0.273 0.375,0.523 0.574,0.773c1.25,1.625 2.75,3.024 4.476,4.074c1.426,0.852 2.977,1.477 4.649,1.727l-0,0Zm0.926,-7.898l-0,8.5c-0.024,0.25 -0.25,0.425 -0.524,0.398c-2,-0.226 -3.851,-0.926 -5.523,-1.949c-1.824,-1.102 -3.399,-2.574 -4.727,-4.273c-0.199,-0.25 -0.398,-0.524 -0.601,-0.801c-0.2,-0.301 -0.399,-0.574 -0.575,-0.852c-0.023,-0.051 -0.05,-0.125 -0.074,-0.199c-0.023,-0.25 0.149,-0.477 0.399,-0.5c1.851,-0.25 3.675,-0.426 5.5,-0.551c1.851,-0.125 3.726,-0.199 5.625,-0.226l0.05,-0c0.25,-0 0.45,0.199 0.45,0.449l-0,0.004Zm-0.926,-3.375l-0,-7.575l-13.875,0c0.101,1.45 0.324,2.899 0.676,4.325c0.324,1.425 0.773,2.8 1.351,4.148c1.977,-0.273 3.926,-0.476 5.875,-0.625c1.977,-0.148 3.977,-0.226 5.977,-0.273l-0.004,-0Zm0.926,-8.051l-0,8.5c-0,0.25 -0.2,0.449 -0.45,0.476c-2.125,0.024 -4.226,0.102 -6.375,0.274c-2.05,0.148 -4.101,0.375 -6.125,0.648c-0.226,0.024 -0.425,-0.074 -0.523,-0.273c-0.648,-1.477 -1.176,-3.023 -1.551,-4.625c-0.398,-1.602 -0.625,-3.273 -0.726,-4.926l-0,-0.074c-0,-0.25 0.199,-0.449 0.476,-0.449l14.824,-0c0.25,-0 0.449,0.199 0.449,0.449l0.001,-0Zm-0.926,-3.375l-0,-7.602c-2,-0.023 -3.977,-0.125 -5.949,-0.273c-1.977,-0.149 -3.926,-0.352 -5.875,-0.625c-0.575,1.351 -1.051,2.75 -1.375,4.148c-0.352,1.449 -0.575,2.899 -0.676,4.352l13.875,-0Zm0.926,-8.051l-0,8.5c-0,0.274 -0.2,0.477 -0.45,0.477l-14.848,-0c-0.25,-0.024 -0.449,-0.227 -0.449,-0.5c0.102,-1.676 0.324,-3.352 0.727,-4.977c0.375,-1.602 0.898,-3.148 1.574,-4.625c0.074,-0.199 0.273,-0.301 0.477,-0.273c2.05,0.273 4.101,0.5 6.148,0.648c2.125,0.176 4.227,0.25 6.324,0.274l0.051,-0c0.25,-0 0.449,0.226 0.449,0.476l-0.003,0Zm-10.75,-4.074c1.55,0.199 3.125,0.351 4.699,0.449c1.726,0.125 3.426,0.199 5.125,0.227l-0,-7.426c-1.676,0.273 -3.227,0.898 -4.649,1.75c-1.726,1.051 -3.226,2.449 -4.476,4.051c-0.199,0.273 -0.399,0.523 -0.574,0.773l-0.125,0.176Zm4.625,1.375c-1.801,-0.125 -3.625,-0.301 -5.45,-0.524c-0.074,-0.023 -0.148,-0.023 -0.226,-0.074c-0.199,-0.148 -0.274,-0.426 -0.125,-0.648c0.176,-0.274 0.351,-0.551 0.551,-0.824c0.199,-0.274 0.398,-0.551 0.601,-0.801c1.324,-1.699 2.899,-3.176 4.727,-4.274c1.648,-1.023 3.523,-1.699 5.5,-1.949l0.101,0c0.25,0 0.45,0.199 0.45,0.449l-0,8.426c-0,0.25 -0.227,0.449 -0.477,0.449c-1.898,-0.023 -3.773,-0.101 -5.648,-0.226l-0.004,-0.004Zm-5.051,32.176l-0.375,-0.375c-0.551,-0.574 -1.074,-1.148 -1.551,-1.773c-0.352,-0.477 -0.699,-0.95 -1.051,-1.45c-0.273,-0.425 -0.523,-0.851 -0.773,-1.273c-1.125,0.176 -2.25,0.398 -3.399,0.625c-0.851,0.199 -1.699,0.398 -2.55,0.625c1.55,0.824 3.148,1.523 4.824,2.148c1.574,0.602 3.226,1.075 4.875,1.477l-0,-0.004Zm0.273,-1c0.524,0.523 1.051,1 1.602,1.477c0.148,0.101 0.226,0.273 0.176,0.449c-0.051,0.25 -0.301,0.426 -0.551,0.375c-2.274,-0.477 -4.524,-1.102 -6.699,-1.899c-2.075,-0.773 -4.051,-1.699 -5.95,-2.773c-0.101,-0.074 -0.175,-0.176 -0.199,-0.274c-0.074,-0.25 0.074,-0.5 0.324,-0.574c1.227,-0.351 2.45,-0.648 3.7,-0.926c1.226,-0.25 2.449,-0.5 3.699,-0.699c0.199,-0.051 0.398,0.051 0.5,0.227c0.301,0.523 0.601,1.023 0.926,1.5c0.324,0.476 0.648,0.949 1,1.398c0.476,0.602 0.976,1.176 1.476,1.727l-0.004,-0.008Zm-5.773,-7.5c-0.551,-1.398 -1,-2.852 -1.324,-4.324c-0.325,-1.574 -0.551,-3.149 -0.649,-4.75l-13.852,-0c0.301,2.074 1.102,3.976 2.199,5.726c1.352,2.075 3.149,3.926 5.125,5.45c1.45,-0.45 2.899,-0.875 4.375,-1.227c1.375,-0.324 2.75,-0.625 4.125,-0.875l0.001,-0Zm-0.426,-4.523c0.352,1.601 0.852,3.175 1.477,4.699c0.023,0.023 0.05,0.074 0.05,0.101c0.051,0.25 -0.125,0.5 -0.375,0.551c-1.55,0.273 -3.101,0.574 -4.625,0.949c-1.523,0.375 -3.05,0.801 -4.55,1.274c-0.125,0.05 -0.274,0.023 -0.399,-0.075c-2.148,-1.625 -4.101,-3.574 -5.551,-5.851c-1.273,-1.977 -2.148,-4.176 -2.398,-6.574c-0.023,-0.024 -0.023,-0.051 -0.023,-0.102c-0,-0.25 0.226,-0.449 0.476,-0.449l14.801,-0c0.25,-0 0.449,0.199 0.477,0.449c0.074,1.676 0.3,3.375 0.648,5.023l-0.008,0.005Zm-1.551,-8.399c0.102,-1.601 0.325,-3.199 0.649,-4.75c0.351,-1.5 0.773,-2.949 1.324,-4.351c-1.352,-0.25 -2.727,-0.551 -4.102,-0.875c-1.476,-0.352 -2.949,-0.75 -4.375,-1.227c-2,1.551 -3.8,3.375 -5.148,5.477c-1.102,1.726 -1.898,3.648 -2.199,5.726l13.851,0Zm1.551,-4.551c-0.351,1.625 -0.574,3.325 -0.648,5c-0,0.274 -0.2,0.477 -0.477,0.477l-14.852,-0c-0.25,-0.024 -0.449,-0.25 -0.426,-0.524c0.274,-2.398 1.149,-4.625 2.426,-6.625c1.449,-2.25 3.399,-4.226 5.551,-5.851c0.125,-0.102 0.273,-0.125 0.426,-0.074c1.5,0.5 3.023,0.898 4.523,1.273c1.523,0.375 3.074,0.676 4.625,0.949c0.051,0 0.074,0.024 0.102,0.024c0.25,0.101 0.351,0.375 0.25,0.625c-0.625,1.523 -1.125,3.101 -1.5,4.726l0,0Zm2.176,-8.148c0.25,-0.449 0.523,-0.875 0.801,-1.273c0.324,-0.5 0.675,-0.977 1.023,-1.45c0.477,-0.625 1,-1.226 1.551,-1.773c0.125,-0.125 0.25,-0.274 0.375,-0.375c-1.649,0.398 -3.274,0.875 -4.875,1.477c-1.649,0.601 -3.25,1.324 -4.801,2.148c0.852,0.199 1.699,0.398 2.551,0.601l0.023,0c1.125,0.25 2.227,0.45 3.352,0.649l-0,-0.004Zm1.551,-0.774c-0.325,0.5 -0.625,0.977 -0.899,1.477c-0.074,0.176 -0.273,0.274 -0.476,0.25c-1.25,-0.199 -2.5,-0.426 -3.727,-0.699l-0.023,-0c-1.227,-0.274 -2.45,-0.574 -3.676,-0.899c-0.125,-0.05 -0.227,-0.101 -0.301,-0.226c-0.125,-0.227 -0.051,-0.5 0.176,-0.625c1.875,-1.102 3.875,-2.024 5.926,-2.774c2.175,-0.8 4.449,-1.425 6.699,-1.898c0.176,-0.023 0.351,0.023 0.449,0.148c0.176,0.2 0.149,0.5 -0.051,0.649c-0.574,0.476 -1.101,0.976 -1.625,1.5c-0.5,0.551 -1,1.125 -1.476,1.727c-0.352,0.449 -0.676,0.898 -1,1.375l0.004,-0.005Zm26.551,-4.101c0.125,0.101 0.25,0.25 0.375,0.375c0.55,0.551 1.074,1.148 1.55,1.773c0.375,0.477 0.7,0.949 1.051,1.449c0.274,0.399 0.524,0.825 0.774,1.274c1.125,-0.199 2.25,-0.426 3.375,-0.649c0.851,-0.199 1.699,-0.398 2.551,-0.601c-1.524,-0.824 -3.149,-1.551 -4.801,-2.149c-1.602,-0.601 -3.227,-1.074 -4.875,-1.476l-0,0.004Zm-0.274,1c-0.5,-0.524 -1.051,-1.024 -1.601,-1.477c-0.125,-0.101 -0.2,-0.273 -0.176,-0.449c0.051,-0.25 0.301,-0.426 0.551,-0.375c2.273,0.477 4.523,1.102 6.699,1.898c2.051,0.75 4.051,1.676 5.926,2.774c0.101,0.051 0.175,0.148 0.226,0.273c0.051,0.25 -0.101,0.5 -0.324,0.551c-1.227,0.352 -2.477,0.649 -3.699,0.926c-1.25,0.25 -2.477,0.5 -3.75,0.699c-0.176,0.023 -0.375,-0.051 -0.477,-0.226c-0.273,-0.5 -0.574,-1 -0.898,-1.5c-0.324,-0.477 -0.649,-0.926 -1,-1.375c-0.477,-0.602 -0.949,-1.176 -1.477,-1.727l0,0.008Zm14.25,5.375c-1.426,0.476 -2.898,0.875 -4.375,1.226c-1.375,0.325 -2.75,0.625 -4.101,0.875c0.55,1.399 1,2.852 1.324,4.352c0.351,1.551 0.551,3.148 0.648,4.75l13.852,0c-0.301,-2.074 -1.101,-4 -2.199,-5.727c-1.352,-2.101 -3.148,-3.925 -5.148,-5.476l-0.001,-0Zm-4.574,0.324c1.5,-0.351 3.023,-0.773 4.523,-1.273c0.125,-0.051 0.301,-0.024 0.426,0.074c2.149,1.625 4.102,3.601 5.551,5.851c1.273,1.977 2.148,4.2 2.426,6.602l-0,0.074c-0,0.274 -0.199,0.477 -0.477,0.477l-14.801,-0c-0.25,-0 -0.449,-0.199 -0.476,-0.449c-0.075,-1.7 -0.301,-3.375 -0.649,-5.024c-0.351,-1.625 -0.851,-3.199 -1.5,-4.726c0,-0.024 -0.023,-0.075 -0.023,-0.102c-0.051,-0.25 0.125,-0.5 0.375,-0.551c1.551,-0.273 3.101,-0.574 4.625,-0.949l0,-0.004Zm-3.898,23.801c1.375,0.25 2.75,0.551 4.125,0.875c1.476,0.352 2.949,0.774 4.375,1.227c2,-1.524 3.8,-3.375 5.125,-5.45c1.125,-1.75 1.898,-3.648 2.199,-5.726l-13.852,-0c-0.102,1.601 -0.301,3.176 -0.649,4.75c-0.324,1.476 -0.773,2.926 -1.324,4.324l0.001,0Zm3.898,1.773c-1.523,-0.375 -3.051,-0.675 -4.625,-0.949c-0.023,0 -0.051,-0.023 -0.102,-0.023c-0.226,-0.102 -0.351,-0.375 -0.25,-0.602c0.649,-1.551 1.149,-3.125 1.5,-4.726c0.352,-1.649 0.575,-3.325 0.649,-5l-0,-0.024c-0,-0.25 0.226,-0.449 0.476,-0.449l14.852,0c0.274,0.023 0.45,0.25 0.426,0.5c-0.273,2.426 -1.148,4.648 -2.426,6.625c-1.425,2.25 -3.375,4.199 -5.5,5.824c-0.125,0.125 -0.3,0.149 -0.449,0.102c-1.5,-0.477 -3.023,-0.899 -4.551,-1.274l0,-0.004Z" style="fill-rule:nonzero;"/></svg>