<?xml version="1.0" encoding="UTF-8" standalone="no"?><!DOCTYPE svg PUBLIC "-//W3C//DTD SVG 1.1//EN" "http://www.w3.org/Graphics/SVG/1.1/DTD/svg11.dtd"><svg width="100%" height="100%" viewBox="0 0 51 51" version="1.1" xmlns="http://www.w3.org/2000/svg" xmlns:xlink="http://www.w3.org/1999/xlink" xml:space="preserve" xmlns:serif="http://www.serif.com/" style="fill-rule:evenodd;clip-rule:evenodd;stroke-linejoin:round;stroke-miterlimit:2;"><g id="frq-logo-small"><path d="M2.681,40.849l11.595,-28.124c0.417,-1.01 1.401,-1.668 2.493,-1.668l3.962,-0c1.082,-0 2.06,-0.645 2.487,-1.64l0.173,-0.404c0.497,-1.16 1.638,-1.913 2.901,-1.913l22.544,0c0.83,0 1.397,0.84 1.086,1.61l-1.328,3.285c-0.431,1.066 -1.439,1.789 -2.587,1.854l-12.89,0.74c-1.5,0.086 -2.806,1.051 -3.33,2.459l-0.805,2.162c-0.276,0.742 0.315,1.518 1.103,1.45l13.081,-1.127c0.745,-0.065 1.3,0.674 1.032,1.371l-1.097,2.848c-0.532,1.385 -1.784,2.363 -3.256,2.545l-11.424,1.416c-2.199,0.272 -4.074,1.721 -4.892,3.78l-2.175,5.472c-0.55,1.382 -1.75,2.401 -3.204,2.718l-13.906,3.032c-1.083,0.236 -1.985,-0.841 -1.563,-1.866" style="fill-rule:nonzero;"/><path d="M21.159,6.711l-5.196,-0c-0.609,-0 -1.019,-0.623 -0.779,-1.183l1.771,-4.122c0.276,-0.643 -0.196,-1.36 -0.896,-1.36l-0.576,0c-0.701,0 -1.335,0.418 -1.612,1.063l-1.653,3.848c-0.457,1.064 -1.504,1.754 -2.663,1.754l-5.13,-0c-0.609,-0 -1.164,0.353 -1.421,0.905l-0.357,0.764c-0.234,0.499 0.131,1.072 0.683,1.072l5.37,0c0.751,0 1.257,0.768 0.961,1.458l-1.935,4.504c-0.242,0.563 0.171,1.189 0.783,1.189l0.969,0c0.576,0 1.096,-0.342 1.323,-0.871l1.979,-4.607c0.436,-1.015 1.434,-1.673 2.539,-1.673l5.161,0c0.517,0 0.988,-0.3 1.207,-0.769l0.308,-0.659c0.285,-0.612 -0.161,-1.313 -0.836,-1.313" style="fill-rule:nonzero;"/><path d="M38.883,34.768c-0.04,-0.352 -0.355,-0.604 -0.708,-0.564l-4.01,0.454c-1.308,0.148 -2.414,1.036 -2.84,2.281l-0.573,1.676l-0,-7.917c-0,-0.392 -0.281,-0.718 -0.668,-0.777c-0.386,-0.059 -0.752,0.17 -0.868,0.543l-3.454,11.094l0,-7.058c0,-0.353 -0.215,-0.683 -0.552,-0.79c-0.406,-0.129 -0.833,0.082 -0.983,0.468l-1.599,4.095c-0.644,1.648 -2.06,2.86 -3.787,3.242l-5.247,1.16c-0.014,0.003 -0.027,0.01 -0.042,0.014l-10.476,2.289c-0.829,0.181 -1.516,0.758 -1.836,1.543l-1.153,2.823c-0.316,0.776 0.369,1.588 1.187,1.407l15.032,-3.326c0.866,-0.192 1.573,-0.816 1.87,-1.652l0.747,-2.093c0.201,-0.567 0.646,-1.006 1.205,-1.227c1.679,-0.667 3.023,-2 3.692,-3.714l0.662,-1.693l-0,7.74c-0,0.346 0.213,0.669 0.543,0.774c0.083,0.027 0.165,0.039 0.245,0.039c0.34,-0 0.643,-0.218 0.747,-0.553l3.454,-11.094l0,7.637c0,0.385 0.276,0.711 0.657,0.774c0.381,0.063 0.747,-0.155 0.872,-0.52l1.537,-4.489c0.266,-0.777 0.956,-1.332 1.772,-1.424l4.01,-0.454c0.351,-0.04 0.604,-0.357 0.564,-0.708" style="fill-rule:nonzero;"/></g></svg>