<?xml version="1.0" encoding="UTF-8" standalone="no"?><!DOCTYPE svg PUBLIC "-//W3C//DTD SVG 1.1//EN" "http://www.w3.org/Graphics/SVG/1.1/DTD/svg11.dtd"><svg width="100%" height="100%" viewBox="0 0 76 52" version="1.1" xmlns="http://www.w3.org/2000/svg" xmlns:xlink="http://www.w3.org/1999/xlink" xml:space="preserve" xmlns:serif="http://www.serif.com/" style="fill-rule:evenodd;clip-rule:evenodd;stroke-linejoin:round;stroke-miterlimit:2;"><path d="M1.43,31.805c1.629,4.535 5.129,8.598 9.93,11.797c4.511,3.008 10.164,5.254 16.488,6.43c-3.871,-1.297 -7.348,-3.313 -10.219,-5.864c-0.942,-0.836 -1.817,-1.73 -2.621,-2.675c-1.414,-0.536 -2.754,-1.118 -4.008,-1.743c-4.367,-2.183 -7.692,-4.898 -9.574,-7.941l0.004,-0.004Zm73.105,-0c-1.879,3.043 -5.207,5.758 -9.574,7.941c-1.254,0.625 -2.59,1.207 -4.008,1.743c-0.805,0.945 -1.68,1.839 -2.621,2.675c-2.871,2.555 -6.348,4.571 -10.219,5.864c6.328,-1.176 11.98,-3.422 16.488,-6.43c4.801,-3.199 8.301,-7.262 9.93,-11.797l0.004,0.004Zm0.344,-2.266c-1.809,2.227 -5.293,4.2 -9.965,5.758l-0.082,0.028c-0.781,1.789 -1.785,3.48 -2.977,5.05c0.973,-0.398 1.903,-0.82 2.789,-1.261c5.149,-2.575 8.797,-5.883 10.234,-9.575l0.001,0Zm0.347,-1.906c-1.519,1.141 -4.628,2.149 -8.894,2.949c-0.27,1.328 -0.652,2.621 -1.141,3.871c5.336,-1.847 8.961,-4.214 10.031,-6.82l0.004,0Zm0.254,-1.254l-8.699,0c-0.019,1.172 -0.125,2.328 -0.312,3.457c5.175,-0.976 8.488,-2.179 9.011,-3.457Zm0,-0.715c-0.523,-1.277 -3.836,-2.476 -9.011,-3.457c0.187,1.129 0.296,2.286 0.312,3.457l8.699,0Zm-0.254,-1.253c-1.07,-2.606 -4.699,-4.973 -10.031,-6.821c0.489,1.25 0.871,2.543 1.141,3.871c4.266,0.801 7.375,1.809 8.895,2.95l-0.005,-0Zm-10.582,-11.48c-0.886,-0.442 -1.816,-0.864 -2.789,-1.262c1.192,1.566 2.196,3.262 2.977,5.051l0.082,0.027c4.672,1.559 8.156,3.531 9.965,5.758c-1.438,-3.688 -5.086,-7 -10.234,-9.574l-0.001,-0Zm-6.308,-5.055c0.941,0.836 1.816,1.73 2.621,2.676c1.414,0.535 2.754,1.117 4.008,1.742c4.367,2.183 7.691,4.898 9.574,7.941c-1.629,-4.535 -5.129,-8.597 -9.93,-11.797c-4.511,-3.008 -10.164,-5.254 -16.488,-6.429c3.871,1.296 7.348,3.312 10.219,5.863l-0.004,0.004Zm-6.621,0.101c2.781,0.539 5.406,1.235 7.832,2.067c-0.535,-0.567 -1.094,-1.113 -1.684,-1.633c-3.715,-3.301 -8.461,-5.68 -13.777,-6.727c2.899,1.278 5.488,3.442 7.594,6.247l0.035,0.046Zm3.496,6.418c3.183,0.539 6.113,1.227 8.707,2.028c-0.887,-1.887 -2.031,-3.656 -3.387,-5.274c-2.512,-0.937 -5.269,-1.722 -8.211,-2.328c1.141,1.672 2.117,3.543 2.895,5.574l-0.004,0Zm1.59,5.782c2.957,0.281 5.668,0.629 8.062,1.027c0.242,0.039 0.477,0.082 0.711,0.121c-0.297,-1.387 -0.727,-2.734 -1.273,-4.031c-2.602,-0.844 -5.567,-1.559 -8.809,-2.125c0.559,1.586 1,3.265 1.309,5.008l-0,-0Zm0.504,5.492l8.769,-0c-0.02,-1.223 -0.137,-2.422 -0.348,-3.594c-0.32,-0.059 -0.644,-0.113 -0.976,-0.168c-2.328,-0.387 -4.957,-0.727 -7.824,-1c0.234,1.543 0.367,3.137 0.382,4.766l-0.003,-0.004Zm-0.383,5.476c2.867,-0.277 5.5,-0.613 7.824,-1c0.332,-0.054 0.656,-0.113 0.976,-0.168c0.211,-1.171 0.329,-2.371 0.348,-3.593l-8.769,-0c-0.016,1.629 -0.149,3.222 -0.383,4.765l0.004,-0.004Zm-1.426,5.739c3.242,-0.567 6.207,-1.285 8.809,-2.125c0.546,-1.297 0.972,-2.645 1.273,-4.031c-0.234,0.042 -0.473,0.082 -0.715,0.121c-2.394,0.398 -5.105,0.746 -8.062,1.027c-0.305,1.746 -0.747,3.422 -1.309,5.008l0.004,-0Zm-3.176,6.344c2.945,-0.606 5.699,-1.391 8.211,-2.329c1.359,-1.617 2.5,-3.386 3.387,-5.273c-2.594,0.805 -5.52,1.488 -8.707,2.027c-0.778,2.028 -1.754,3.903 -2.895,5.575l0.004,-0Zm-0.637,0.894c-2.105,2.809 -4.695,4.969 -7.593,6.246c5.316,-1.043 10.066,-3.426 13.777,-6.726c0.586,-0.524 1.148,-1.067 1.683,-1.633c-2.426,0.832 -5.051,1.527 -7.832,2.066l-0.035,0.047Zm-1.011,0.148c-1.95,0.344 -3.973,0.61 -6.051,0.793c-1.094,2.59 -2.418,4.54 -3.891,5.629c3.813,-0.754 7.25,-3.058 9.946,-6.422l-0.004,0Zm3.73,-6.476c-2.476,0.394 -5.101,0.703 -7.84,0.914c-0.421,1.953 -0.937,3.742 -1.531,5.328c-0.035,0.098 -0.074,0.191 -0.109,0.285c2.207,-0.203 4.344,-0.504 6.394,-0.89c1.215,-1.668 2.258,-3.567 3.086,-5.637l0,-0Zm1.672,-5.848c-2.676,0.242 -5.543,0.43 -8.555,0.563c-0.191,1.922 -0.461,3.754 -0.804,5.472c2.793,-0.218 5.469,-0.543 7.984,-0.957c0.59,-1.601 1.055,-3.304 1.375,-5.078l0,0Zm0.527,-5.558l-8.769,-0c-0.008,1.855 -0.094,3.664 -0.246,5.402c3.035,-0.133 5.922,-0.324 8.613,-0.57c0.246,-1.563 0.383,-3.176 0.402,-4.832l0,-0Zm-0.402,-5.547c-2.687,-0.246 -5.574,-0.438 -8.613,-0.571c0.152,1.743 0.234,3.547 0.246,5.403l8.769,-0c-0.015,-1.657 -0.156,-3.27 -0.402,-4.832l0,-0Zm-1.5,-5.805c-2.516,-0.414 -5.187,-0.734 -7.984,-0.957c0.343,1.719 0.617,3.551 0.804,5.473c3.012,0.129 5.879,0.32 8.555,0.562c-0.324,-1.773 -0.785,-3.473 -1.375,-5.078l0,-0Zm-3.383,-6.406c-2.051,-0.387 -4.187,-0.688 -6.394,-0.891c0.035,0.094 0.074,0.192 0.109,0.285c0.594,1.586 1.11,3.375 1.531,5.328c2.739,0.211 5.364,0.52 7.84,0.914c-0.828,-2.07 -1.871,-3.968 -3.086,-5.636l0,-0Zm-6.695,-1.633c2.078,0.184 4.102,0.449 6.051,0.793c-2.692,-3.359 -6.133,-5.668 -9.946,-6.422c1.473,1.09 2.797,3.039 3.891,5.629l0.004,-0Zm-0.801,38.137c-1.785,0.137 -3.613,0.211 -5.469,0.223l0,5.589c2.059,-0.222 3.961,-2.371 5.469,-5.808l0,-0.004Zm2.004,-6.371c-2.414,0.168 -4.914,0.262 -7.473,0.269l0,5.61c1.969,-0.008 3.899,-0.094 5.782,-0.246c0.078,-0.199 0.156,-0.399 0.234,-0.606c0.562,-1.5 1.051,-3.187 1.457,-5.027l0,-0Zm0.977,-6.223c-2.715,0.11 -5.543,0.168 -8.45,0.172l0,5.609c2.614,-0.007 5.168,-0.105 7.629,-0.281c0.352,-1.719 0.629,-3.562 0.825,-5.5l-0.004,0Zm0.316,-6.152l-8.769,-0l-0,5.609c2.929,-0.004 5.781,-0.066 8.519,-0.175c0.152,-1.747 0.242,-3.567 0.25,-5.434l0,-0Zm-0.25,-6.149c-2.734,-0.109 -5.586,-0.167 -8.519,-0.175l-0,5.609l8.769,0c-0.008,-1.867 -0.098,-3.687 -0.25,-5.433l0,-0.001Zm-0.891,-6.214c-2.46,-0.176 -5.011,-0.274 -7.628,-0.282l-0,5.61c2.906,0.004 5.734,0.062 8.449,0.172c-0.196,-1.934 -0.473,-3.778 -0.824,-5.5l0.003,-0Zm-1.847,-6.356c-1.883,-0.152 -3.813,-0.238 -5.781,-0.246l-0,5.609c2.558,0.008 5.058,0.102 7.472,0.27c-0.406,-1.84 -0.898,-3.527 -1.457,-5.027c-0.078,-0.203 -0.156,-0.407 -0.234,-0.602l-0,-0.004Zm-5.781,-0.961c1.859,0.008 3.683,0.082 5.468,0.223c-1.507,-3.438 -3.41,-5.586 -5.468,-5.809l-0,5.59l-0,-0.004Zm-6.457,43.66c-2.899,-1.277 -5.489,-3.441 -7.594,-6.246l-0.035,-0.047c-2.782,-0.539 -5.407,-1.234 -7.832,-2.066c0.535,0.566 1.093,1.113 1.683,1.633c3.715,3.3 8.461,5.679 13.777,6.726l0.001,0Zm3.363,0.321c-1.473,-1.09 -2.797,-3.04 -3.891,-5.629c-2.078,-0.184 -4.101,-0.45 -6.051,-0.793c2.692,3.359 6.133,5.668 9.946,6.422l-0.004,-0Zm2.383,-5.34c-1.86,-0.008 -3.684,-0.082 -5.469,-0.223c1.508,3.438 3.41,5.586 5.469,5.809l-0,-5.59l-0,0.004Zm-7.473,-6.59c0.406,1.84 0.898,3.527 1.457,5.027c0.078,0.207 0.156,0.407 0.234,0.606c1.883,0.152 3.813,0.238 5.782,0.246l-0,-5.61c-2.559,-0.007 -5.059,-0.101 -7.473,-0.269l-0,-0Zm-8.578,-0.969c0.828,2.071 1.871,3.969 3.086,5.637c2.051,0.387 4.191,0.687 6.394,0.891c-0.035,-0.094 -0.074,-0.192 -0.109,-0.286c-0.594,-1.586 -1.11,-3.375 -1.531,-5.328c-2.739,-0.211 -5.364,-0.519 -7.84,-0.914l-0,0Zm-0.817,-0.133c-3.183,-0.539 -6.113,-1.226 -8.707,-2.027c0.887,1.887 2.032,3.656 3.387,5.274c2.512,0.937 5.27,1.722 8.211,2.328c-1.141,-1.672 -2.113,-3.543 -2.894,-5.575l0.003,0Zm-0.285,-0.769c-0.558,-1.586 -1,-3.266 -1.308,-5.008c-2.957,-0.281 -5.668,-0.629 -8.063,-1.027c-0.242,-0.039 -0.476,-0.082 -0.715,-0.121c0.297,1.386 0.727,2.734 1.274,4.031c2.601,0.844 5.566,1.558 8.808,2.125l0.004,-0Zm8.789,1.094c-0.343,-1.719 -0.613,-3.551 -0.804,-5.473c-3.012,-0.129 -5.879,-0.32 -8.555,-0.563c0.324,1.774 0.785,3.473 1.375,5.079c2.516,0.414 5.187,0.734 7.984,0.957l0,-0Zm8.364,-5.274c-2.907,-0.004 -5.735,-0.062 -8.45,-0.172c0.196,1.934 0.473,3.778 0.825,5.5c2.461,0.176 5.011,0.274 7.629,0.282l-0,-5.61l-0.004,0Zm-8.77,-6.32c0.008,1.867 0.098,3.687 0.25,5.434c2.735,0.109 5.586,0.168 8.52,0.175l-0,-5.609l-8.77,-0Zm-9.48,-0c0.015,1.656 0.156,3.269 0.402,4.832c2.688,0.246 5.574,0.437 8.613,0.57c-0.152,-1.742 -0.234,-3.547 -0.246,-5.402l-8.769,-0Zm-0.715,-0l-8.77,-0c0.02,1.223 0.137,2.422 0.348,3.594c0.32,0.058 0.645,0.113 0.977,0.168c2.328,0.386 4.957,0.726 7.824,1c-0.235,-1.543 -0.367,-3.137 -0.383,-4.766l0.004,0.004Zm-0,-0.715c0.015,-1.629 0.148,-3.223 0.383,-4.765c-2.868,0.277 -5.5,0.613 -7.825,1c-0.332,0.054 -0.656,0.113 -0.976,0.167c-0.211,1.172 -0.328,2.372 -0.348,3.594l8.77,0l-0.004,0.004Zm9.48,0c0.008,-1.855 0.094,-3.664 0.246,-5.402c-3.035,0.133 -5.921,0.324 -8.613,0.57c-0.246,1.563 -0.387,3.176 -0.402,4.832l8.769,0Zm9.481,-5.609c-2.93,0.004 -5.781,0.066 -8.52,0.176c-0.152,1.746 -0.242,3.566 -0.25,5.433l8.77,0l-0,-5.609Zm-7.629,-6.039c-0.352,1.718 -0.629,3.562 -0.824,5.5c2.715,-0.11 5.543,-0.168 8.449,-0.172l-0,-5.61c-2.617,0.008 -5.168,0.106 -7.629,0.282l0.004,-0Zm-10.832,6.156c0.309,-1.746 0.746,-3.422 1.309,-5.008c-3.243,0.566 -6.207,1.285 -8.809,2.125c-0.547,1.297 -0.973,2.645 -1.273,4.031c0.234,-0.043 0.472,-0.082 0.71,-0.121c2.395,-0.398 5.106,-0.746 8.063,-1.027l-0,-0Zm10.094,-6.102c-2.793,0.219 -5.469,0.543 -7.984,0.957c-0.59,1.602 -1.055,3.305 -1.375,5.078c2.675,-0.242 5.543,-0.433 8.554,-0.562c0.192,-1.922 0.461,-3.754 0.805,-5.473l-0,0Zm0.152,-0.726c0.422,-1.953 0.938,-3.743 1.531,-5.328c0.036,-0.098 0.075,-0.192 0.11,-0.286c-2.207,0.204 -4.344,0.504 -6.395,0.891c-1.214,1.668 -2.257,3.566 -3.086,5.637c2.477,-0.395 5.102,-0.703 7.84,-0.914l0,-0Zm8.215,-5.93c-1.969,0.008 -3.898,0.094 -5.781,0.246c-0.078,0.199 -0.156,0.398 -0.234,0.602c-0.563,1.5 -1.055,3.187 -1.457,5.027c2.414,-0.168 4.914,-0.262 7.472,-0.27l0,-5.609l0,0.004Zm0,-6.305c-2.059,0.223 -3.961,2.371 -5.469,5.809c1.785,-0.137 3.614,-0.211 5.469,-0.223l0,-5.59l0,0.004Zm-2.383,0.25c-3.812,0.754 -7.25,3.059 -9.945,6.422c1.949,-0.344 3.973,-0.609 6.051,-0.793c1.094,-2.59 2.418,-4.539 3.89,-5.629l0.004,0Zm-11.594,7.461c-2.945,0.606 -5.699,1.391 -8.211,2.328c-1.359,1.617 -2.5,3.387 -3.386,5.274c2.593,-0.805 5.519,-1.489 8.707,-2.028c0.777,-2.027 1.754,-3.902 2.894,-5.574l-0.004,0Zm-7.226,1.219c2.425,-0.832 5.05,-1.527 7.832,-2.066l0.035,-0.047c2.105,-2.809 4.695,-4.969 7.594,-6.246c-5.317,1.043 -10.066,3.425 -13.777,6.726c-0.586,0.524 -1.149,1.067 -1.684,1.633l-0,-0Zm-14.992,10.195c1.879,-3.043 5.207,-5.758 9.574,-7.941c1.254,-0.625 2.59,-1.207 4.008,-1.743c0.804,-0.945 1.679,-1.839 2.621,-2.675c2.871,-2.555 6.347,-4.571 10.219,-5.864c-6.328,1.176 -11.98,3.422 -16.488,6.43c-4.801,3.199 -8.301,7.262 -9.93,11.797l-0.004,-0.004Zm-0.344,2.266c1.809,-2.227 5.293,-4.2 9.965,-5.758l0.082,-0.028c0.781,-1.789 1.785,-3.48 2.976,-5.05c-0.972,0.398 -1.902,0.82 -2.789,1.261c-5.148,2.575 -8.797,5.883 -10.234,9.575l-0,-0Zm-0.348,1.906c1.52,-1.141 4.629,-2.149 8.895,-2.949c0.269,-1.329 0.652,-2.622 1.14,-3.872c-5.336,1.848 -8.961,4.215 -10.031,6.821l-0.004,-0Zm-0.254,1.254l8.7,-0c0.019,-1.172 0.125,-2.328 0.312,-3.457c-5.176,0.976 -8.488,2.179 -9.012,3.457Zm0,0.715c0.524,1.277 3.836,2.476 9.012,3.457c-0.187,-1.129 -0.297,-2.286 -0.312,-3.457l-8.7,-0Zm0.254,1.253c1.071,2.606 4.699,4.973 10.031,6.821c-0.488,-1.25 -0.871,-2.543 -1.14,-3.871c-4.266,-0.801 -7.375,-1.809 -8.895,-2.95l0.004,0Zm0.348,1.907c1.437,3.687 5.086,7 10.234,9.574c0.887,0.441 1.816,0.863 2.789,1.262c-1.191,-1.567 -2.195,-3.262 -2.977,-5.051l-0.082,-0.028c-4.672,-1.558 -8.156,-3.531 -9.964,-5.757l-0,-0Z"/></svg>