<?xml version="1.0" encoding="UTF-8" standalone="no"?><!DOCTYPE svg PUBLIC "-//W3C//DTD SVG 1.1//EN" "http://www.w3.org/Graphics/SVG/1.1/DTD/svg11.dtd"><svg width="100%" height="100%" viewBox="0 0 22 25" version="1.1" xmlns="http://www.w3.org/2000/svg" xmlns:xlink="http://www.w3.org/1999/xlink" xml:space="preserve" xmlns:serif="http://www.serif.com/" style="fill-rule:evenodd;clip-rule:evenodd;stroke-linejoin:round;stroke-miterlimit:2;"><path id="icon_sidebar_music_player" d="M7.176,3.464c-1.146,0.296 -1.946,1.329 -1.946,2.511l0,10.368c0,1.194 -0.969,2.163 -2.164,2.163c-1.423,0 -2.577,1.155 -2.577,2.578l-0,0.664c-0,1.603 1.299,2.903 2.902,2.903l0.339,0c1.604,0 2.903,-1.3 2.903,-2.903l0,-9.71c0,-1.5 1.017,-2.808 2.47,-3.177l9.962,-2.535c0.649,-0.165 1.28,0.325 1.28,0.994l-0,5.95c-0,1.195 -0.969,2.164 -2.165,2.164c-1.423,0 -2.577,1.154 -2.577,2.577l0,0.665c0,1.603 1.3,2.903 2.903,2.903l0.339,0c1.603,0 2.902,-1.3 2.902,-2.903l0,-15.768l0.003,2.734l0,-3.981c0,-0.987 -0.93,-1.71 -1.887,-1.467l-12.687,3.27Z" style="fill:#fff;fill-rule:nonzero;"/></svg>