<?xml version="1.0" encoding="UTF-8" standalone="no"?><!DOCTYPE svg PUBLIC "-//W3C//DTD SVG 1.1//EN" "http://www.w3.org/Graphics/SVG/1.1/DTD/svg11.dtd"><svg width="100%" height="100%" viewBox="0 0 20 20" version="1.1" xmlns="http://www.w3.org/2000/svg" xmlns:xlink="http://www.w3.org/1999/xlink" xml:space="preserve" xmlns:serif="http://www.serif.com/" style="fill-rule:evenodd;clip-rule:evenodd;stroke-linejoin:round;stroke-miterlimit:2;"><g id="icon_sidebar_ig"><path d="M9.982,12.6c-1.757,-0 -3.188,-1.43 -3.188,-3.188c0,-1.757 1.431,-3.187 3.188,-3.187c1.757,0 3.187,1.43 3.187,3.187c0,1.758 -1.43,3.188 -3.187,3.188m-0,-7.59c-2.428,-0 -4.403,1.974 -4.403,4.402c-0,2.428 1.975,4.403 4.403,4.403c2.428,0 4.403,-1.975 4.403,-4.403c0,-2.428 -1.975,-4.402 -4.403,-4.402" style="fill:#fff;fill-rule:nonzero;"/><path d="M14.845,3.104c-0.672,-0 -1.218,0.545 -1.218,1.217c0,0.672 0.546,1.217 1.218,1.217c0.672,0 1.217,-0.545 1.217,-1.217c-0,-0.672 -0.545,-1.217 -1.217,-1.217" style="fill:#fff;fill-rule:nonzero;"/><path d="M5.748,1.306c-2.193,0 -3.978,1.785 -3.978,3.978l-0,8.468c-0,2.194 1.785,3.978 3.978,3.978l8.468,-0c2.193,-0 3.977,-1.784 3.977,-3.978l0,-8.468c0,-2.193 -1.784,-3.978 -3.977,-3.978l-8.468,0Zm8.468,17.73l-8.468,0c-2.914,0 -5.285,-2.37 -5.285,-5.284l0,-8.468c0,-2.913 2.371,-5.284 5.285,-5.284l8.468,-0c2.914,-0 5.284,2.371 5.284,5.284l-0,8.468c-0,2.914 -2.37,5.284 -5.284,5.284" style="fill:#fff;fill-rule:nonzero;"/></g></svg>