<?xml version="1.0" encoding="UTF-8" standalone="no"?><!DOCTYPE svg PUBLIC "-//W3C//DTD SVG 1.1//EN" "http://www.w3.org/Graphics/SVG/1.1/DTD/svg11.dtd"><svg width="100%" height="100%" viewBox="0 0 1006 1150" version="1.1" xmlns="http://www.w3.org/2000/svg" xmlns:xlink="http://www.w3.org/1999/xlink" xml:space="preserve" xmlns:serif="http://www.serif.com/" style="fill-rule:evenodd;clip-rule:evenodd;stroke-linejoin:round;stroke-miterlimit:2;"><g id="Layer1"></g><rect id="Artboard1" x="0" y="0" width="1006.66" height="1150.81" style="fill:none;"/><clipPath id="_clip1"><rect x="0" y="0" width="1006.66" height="1150.81"/></clipPath><g clip-path="url(#_clip1)"><path d="M947.75,1113.07c-29.21,24.14 -69.2,33.65 -118.86,28.27c-48.53,-5.26 -104.09,-24.42 -165.13,-56.93c-126,-67.13 -261,-183.44 -380,-327.5c-119,-144.06 -207.84,-298.52 -250.01,-434.91c-20.43,-66.12 -28.75,-124.29 -24.75,-172.94c4,-49.78 20.92,-87.26 50.13,-111.4c23.87,-19.74 55.41,-29.66 93.18,-29.66c25.64,0 54.15,4.58 85.09,13.77c50.52,15 106.22,41.83 164.22,78.88c-28.62,-14.32 -55.88,-24.83 -80.88,-31.16c-52.89,-13.39 -96,-8 -124.61,15.7c-46.75,38.64 -52.13,121.12 -15.13,232.26c36.57,109.91 110.26,235.25 207.48,352.91c97.22,117.66 206.42,213.64 307.47,270.3c61.5,34.48 115.69,51.92 159.29,51.92c28.83,0 53,-7.63 71.65,-23c28.63,-23.66 42.09,-65 38.91,-119.41c-1.5,-25.74 -6.69,-54.45 -15.34,-85.3c25.45,63.93 41.29,123.68 46.54,176.13c7.86,79.44 -9.16,138.94 -49.26,172.08l0.01,-0.01Z"/><path d="M545.81,371.33c43,-8.22 71,-20.76 90.93,-40.65c19.93,-19.89 32.44,-47.94 40.65,-90.93c5.14,-26.9 8.52,-58.35 11.53,-100.16c3,41.82 6.39,73.26 11.54,100.16c8.22,43 20.76,71 40.65,90.93c19.89,19.93 47.94,32.43 90.93,40.65c26.9,5.14 58.34,8.52 100.16,11.53c-41.82,3 -73.26,6.39 -100.16,11.54c-43,8.22 -71,20.76 -90.93,40.65c-19.93,19.89 -32.43,47.95 -40.65,90.95c-5.14,26.9 -8.52,58.35 -11.54,100.16c-3,-41.82 -6.39,-73.26 -11.53,-100.16c-8.22,-43 -20.76,-71 -40.65,-90.93c-19.89,-19.93 -47.94,-32.44 -90.93,-40.65c-26.9,-5.14 -58.34,-8.52 -100.16,-11.54c41.81,-3.02 73.25,-6.4 100.16,-11.55Z"/><path d="M381.47,386.86c276.48,15.64 287.83,27 303.46,303.46l8,0c15.64,-276.48 27,-287.83 303.46,-303.46l0,-8c-276.48,-15.64 -287.83,-27 -303.46,-303.46l-8,0c-15.64,276.48 -27,287.83 -303.46,303.46l-0,8Zm164.34,-15.53c43,-8.22 71,-20.76 90.93,-40.65c19.93,-19.89 32.44,-47.94 40.65,-90.93c5.14,-26.9 8.52,-58.35 11.53,-100.16c3,41.82 6.39,73.26 11.54,100.16c8.22,43 20.76,71 40.65,90.93c19.89,19.93 47.94,32.43 90.93,40.65c26.9,5.14 58.34,8.52 100.16,11.53c-41.82,3 -73.26,6.39 -100.16,11.54c-43,8.22 -71,20.76 -90.93,40.65c-19.93,19.89 -32.43,47.95 -40.65,90.95c-5.14,26.9 -8.52,58.35 -11.54,100.16c-3,-41.82 -6.39,-73.26 -11.53,-100.16c-8.22,-43 -20.76,-71 -40.65,-90.93c-19.89,-19.93 -47.94,-32.44 -90.93,-40.65c-26.9,-5.14 -58.34,-8.52 -100.16,-11.54c41.81,-3.02 73.25,-6.4 100.16,-11.55Z"/><path d="M0.19,162.488l-0,22.139c1.34,41.436 10.014,88.247 25.91,139.703c42.47,137.4 131.78,292.84 251.46,437.67c119.68,144.83 255.5,261.86 382.44,329.47c62,33 118.49,52.46 168,57.83c8.933,0.987 17.913,1.491 26.9,1.51c39.66,0 72.51,-10.57 97.91,-31.56c42.28,-34.92 60.29,-96.83 52.12,-179.05c-7.86,-79.07 -39.47,-174.31 -91.42,-275.42l-7.21,3.47c63.22,140.6 69,250.94 15.5,295.15c-22,18.21 -52.85,24.7 -91.56,19.28c-38,-5.33 -81.88,-21.81 -130.38,-49c-100.21,-56.18 -208.6,-151.5 -305.21,-268.42c-96.61,-116.92 -169.79,-241.34 -206.07,-350.34c-17.58,-52.75 -25.48,-98.92 -23.58,-137.28c2,-39 14.15,-68.07 36.19,-86.29c53.55,-44.21 160.81,-17.72 286.98,70.87l4.76,-6.42c-89.5,-70.08 -177.07,-119.08 -253.25,-141.71c-31.676,-9.407 -60.952,-14.09 -87.386,-14.09c-39.661,0 -72.924,10.542 -98.294,31.49c-30.91,25.57 -48.75,64.9 -53,116.92c-0.378,4.611 -0.648,9.304 -0.81,14.078Zm947.56,950.582c-29.21,24.14 -69.2,33.65 -118.86,28.27c-48.53,-5.26 -104.09,-24.42 -165.13,-56.93c-126,-67.13 -261,-183.44 -380,-327.5c-119,-144.06 -207.84,-298.52 -250.01,-434.91c-20.43,-66.12 -28.75,-124.29 -24.75,-172.94c4,-49.78 20.92,-87.26 50.13,-111.4c23.87,-19.74 55.41,-29.66 93.18,-29.66c25.64,0 54.15,4.58 85.09,13.77c50.52,15 106.22,41.83 164.22,78.88c-28.62,-14.32 -55.88,-24.83 -80.88,-31.16c-52.89,-13.39 -96,-8 -124.61,15.7c-46.75,38.64 -52.13,121.12 -15.13,232.26c36.57,109.91 110.26,235.25 207.48,352.91c97.22,117.66 206.42,213.64 307.47,270.3c61.5,34.48 115.69,51.92 159.29,51.92c28.83,0 53,-7.63 71.65,-23c28.63,-23.66 42.09,-65 38.91,-119.41c-1.5,-25.74 -6.69,-54.45 -15.34,-85.3c25.45,63.93 41.29,123.68 46.54,176.13c7.86,79.44 -9.16,138.94 -49.26,172.08l0.01,-0.01Z"/><path d="M0.19,162.488c-0.245,7.197 -0.244,14.579 -0,22.139l-0,-22.139Z"/></g></svg>