<?xml version="1.0" encoding="UTF-8" standalone="no"?>
<!DOCTYPE svg PUBLIC "-//W3C//DTD SVG 1.1//EN" "http://www.w3.org/Graphics/SVG/1.1/DTD/svg11.dtd">
<svg width="100%" height="100%" viewBox="0 0 499 499" version="1.1" xmlns="http://www.w3.org/2000/svg" xmlns:xlink="http://www.w3.org/1999/xlink" xml:space="preserve" xmlns:serif="http://www.serif.com/" style="fill-rule:evenodd;clip-rule:evenodd;stroke-linejoin:round;stroke-miterlimit:2;">
    <g transform="matrix(1,0,0,1,-57,-7685)">
        <g transform="matrix(8.33333,0,0,8.33333,0,0)">
            <g id="icon-theme-selector">
                <g transform="matrix(1,0,0,1,18.3,943.244)">
                    <path d="M0,17.744L-5.032,17.744C-8.542,17.744 -11.388,14.898 -11.388,11.388L-11.388,6.356C-11.388,2.846 -8.542,0 -5.032,0L0,0C3.51,0 6.356,2.846 6.356,6.356L6.356,11.388C6.356,14.898 3.51,17.744 0,17.744" style="fill:rgb(238,88,159);fill-rule:nonzero;"/>
                </g>
                <g transform="matrix(1,0,0,1,39.2647,943.244)">
                    <path d="M0,17.744L-5.032,17.744C-8.542,17.744 -11.388,14.898 -11.388,11.388L-11.388,6.356C-11.388,2.846 -8.542,0 -5.032,0L0,0C3.51,0 6.356,2.846 6.356,6.356L6.356,11.388C6.356,14.898 3.51,17.744 0,17.744" style="fill:rgb(238,88,159);fill-rule:nonzero;"/>
                </g>
                <g transform="matrix(1,0,0,1,39.2647,964.236)">
                    <path d="M0,17.744L-5.032,17.744C-8.542,17.744 -11.388,14.898 -11.388,11.388L-11.388,6.356C-11.388,2.846 -8.542,0 -5.032,0L0,0C3.51,0 6.356,2.846 6.356,6.356L6.356,11.388C6.356,14.898 3.51,17.744 0,17.744" style="fill:rgb(238,88,159);fill-rule:nonzero;"/>
                </g>
                <g transform="matrix(1,0,0,1,39.2647,922.253)">
                    <path d="M0,17.744L-5.032,17.744C-8.542,17.744 -11.388,14.898 -11.388,11.388L-11.388,6.356C-11.388,2.846 -8.542,0 -5.032,0L0,0C3.51,0 6.356,2.846 6.356,6.356L6.356,11.388C6.356,14.898 3.51,17.744 0,17.744" style="fill:rgb(238,88,159);fill-rule:nonzero;"/>
                </g>
                <g transform="matrix(1,0,0,1,60.2888,942.575)">
                    <path d="M0,17.744L-5.032,17.744C-8.542,17.744 -11.388,14.898 -11.388,11.388L-11.388,6.356C-11.388,2.846 -8.542,0 -5.032,0L0,0C3.51,0 6.356,2.846 6.356,6.356L6.356,11.388C6.356,14.898 3.51,17.744 0,17.744" style="fill:rgb(238,88,159);fill-rule:nonzero;"/>
                </g>
            </g>
        </g>
    </g>
</svg>
