<?xml version="1.0" encoding="UTF-8" standalone="no"?><!DOCTYPE svg PUBLIC "-//W3C//DTD SVG 1.1//EN" "http://www.w3.org/Graphics/SVG/1.1/DTD/svg11.dtd"><svg width="100%" height="100%" viewBox="0 0 346 334" version="1.1" xmlns="http://www.w3.org/2000/svg" xmlns:xlink="http://www.w3.org/1999/xlink" xml:space="preserve" xmlns:serif="http://www.serif.com/" style="fill-rule:evenodd;clip-rule:evenodd;stroke-linejoin:round;stroke-miterlimit:2;"><g><rect x="259.15" y="312.38" width="21.539" height="21.539" style="fill-rule:nonzero;"/><rect x="43.769" y="0.08" width="258.46" height="21.539" style="fill-rule:nonzero;"/><rect x="43.769" y="215.46" width="129.23" height="21.539" style="fill-rule:nonzero;"/><rect x="22.23" y="21.62" width="21.539" height="21.539" style="fill-rule:nonzero;"/><rect x="22.23" y="193.92" width="21.539" height="21.539" style="fill-rule:nonzero;"/><rect x="302.23" y="21.62" width="21.539" height="21.539" style="fill-rule:nonzero;"/><rect x="323.77" y="43.15" width="21.539" height="150.77" style="fill-rule:nonzero;"/><rect x="0.69" y="43.15" width="21.539" height="150.77" style="fill-rule:nonzero;"/><rect x="302.23" y="193.92" width="21.539" height="21.539" style="fill-rule:nonzero;"/><path d="M280.689,237l0,21.539l-21.539,0l0,-43.078l43.078,0l0,21.539l-21.539,0Z" style="fill-rule:nonzero;"/><rect x="280.69" y="258.541" width="21.539" height="64.613" style="fill-rule:nonzero;"/><rect x="173" y="237" width="21.539" height="21.539" style="fill-rule:nonzero;"/><rect x="194.54" y="258.54" width="21.539" height="21.539" style="fill-rule:nonzero;"/><rect x="216.08" y="280.08" width="21.539" height="21.539" style="fill-rule:nonzero;"/><rect x="237.61" y="301.62" width="21.539" height="21.539" style="fill-rule:nonzero;"/></g></svg>