<?xml version="1.0" encoding="UTF-8" standalone="no"?><!DOCTYPE svg PUBLIC "-//W3C//DTD SVG 1.1//EN" "http://www.w3.org/Graphics/SVG/1.1/DTD/svg11.dtd"><svg width="100%" height="100%" viewBox="0 0 302 260" version="1.1" xmlns="http://www.w3.org/2000/svg" xmlns:xlink="http://www.w3.org/1999/xlink" xml:space="preserve" xmlns:serif="http://www.serif.com/" style="fill-rule:evenodd;clip-rule:evenodd;stroke-linejoin:round;stroke-miterlimit:2;"><g><rect x="129.46" y="43.85" width="43.078" height="21.539" style="fill-rule:nonzero;"/><rect x="107.92" y="22.31" width="21.539" height="21.539" style="fill-rule:nonzero;"/><rect x="43.31" y="0.77" width="64.617" height="21.539" style="fill-rule:nonzero;"/><rect x="21.77" y="22.31" width="21.539" height="21.539" style="fill-rule:nonzero;"/><rect x="0.23" y="43.85" width="21.539" height="86.152" style="fill-rule:nonzero;"/><rect x="21.77" y="130" width="21.539" height="21.539" style="fill-rule:nonzero;"/><rect x="43.31" y="151.54" width="21.539" height="21.539" style="fill-rule:nonzero;"/><rect x="64.85" y="173.08" width="21.539" height="21.539" style="fill-rule:nonzero;"/><rect x="86.38" y="194.62" width="21.539" height="21.539" style="fill-rule:nonzero;"/><rect x="107.92" y="216.15" width="21.539" height="21.539" style="fill-rule:nonzero;"/><rect x="129.46" y="237.69" width="43.078" height="21.539" style="fill-rule:nonzero;"/><rect x="172.54" y="22.31" width="21.539" height="21.539" style="fill-rule:nonzero;"/><rect x="194.08" y="0.77" width="64.617" height="21.539" style="fill-rule:nonzero;"/><rect x="258.69" y="22.31" width="21.539" height="21.539" style="fill-rule:nonzero;"/><rect x="280.23" y="43.85" width="21.539" height="86.152" style="fill-rule:nonzero;"/><rect x="258.69" y="130" width="21.539" height="21.539" style="fill-rule:nonzero;"/><rect x="237.15" y="151.54" width="21.539" height="21.539" style="fill-rule:nonzero;"/><rect x="215.62" y="173.08" width="21.539" height="21.539" style="fill-rule:nonzero;"/><rect x="194.08" y="194.62" width="21.539" height="21.539" style="fill-rule:nonzero;"/><rect x="172.54" y="216.15" width="21.539" height="21.539" style="fill-rule:nonzero;"/></g></svg>