<?xml version="1.0" encoding="UTF-8" standalone="no"?><!DOCTYPE svg PUBLIC "-//W3C//DTD SVG 1.1//EN" "http://www.w3.org/Graphics/SVG/1.1/DTD/svg11.dtd"><svg width="100%" height="100%" viewBox="0 0 36 36" version="1.1" xmlns="http://www.w3.org/2000/svg" xmlns:xlink="http://www.w3.org/1999/xlink" xml:space="preserve" xmlns:serif="http://www.serif.com/" style="fill-rule:evenodd;clip-rule:evenodd;stroke-linejoin:round;stroke-miterlimit:2;"><rect id="Artboard1" x="0" y="0" width="36" height="36" style="fill:none;"/><g><clipPath id="_clip1"><rect x="0" y="0" width="36" height="36"/></clipPath><g clip-path="url(#_clip1)"><g><path d="M17.96,3.08c8.24,0 14.96,6.72 14.96,14.96c0,8.24 -6.72,14.92 -14.96,14.92c-8.24,0 -14.92,-6.72 -14.92,-14.96c0,-8.24 6.68,-14.92 14.92,-14.92m0,-3.08c-9.92,0 -18,8.04 -18,18c-0,9.92 8.04,18 18,18c9.92,0 18,-8.04 18,-18c0,-9.92 -8.04,-18 -18,-18Z" style="fill-rule:nonzero;"/></g><path d="M25.6,16.48l-6.12,0l0,-6.12c0,-0.84 -0.68,-1.52 -1.52,-1.52c-0.84,0 -1.52,0.68 -1.52,1.52l0,6.12l-6.12,0c-0.84,0 -1.52,0.68 -1.52,1.52c0,0.84 0.68,1.52 1.52,1.52l6.12,0l0,6.12c0,0.84 0.68,1.52 1.52,1.52c0.84,-0 1.52,-0.68 1.52,-1.52l0,-6.12l6.12,0c0.84,0 1.52,-0.68 1.52,-1.52c0,-0.84 -0.68,-1.52 -1.52,-1.52Z" style="fill-rule:nonzero;"/></g></g></svg>