<?xml version="1.0" encoding="UTF-8" standalone="no"?><!DOCTYPE svg PUBLIC "-//W3C//DTD SVG 1.1//EN" "http://www.w3.org/Graphics/SVG/1.1/DTD/svg11.dtd"><svg width="100%" height="100%" viewBox="0 0 76 36" version="1.1" xmlns="http://www.w3.org/2000/svg" xmlns:xlink="http://www.w3.org/1999/xlink" xml:space="preserve" xmlns:serif="http://www.serif.com/" style="fill-rule:evenodd;clip-rule:evenodd;stroke-linejoin:round;stroke-miterlimit:2;"><rect id="Artboard1" x="-0" y="0" width="75.951" height="35.546" style="fill:none;"/><clipPath id="_clip1"><rect id="Artboard11" serif:id="Artboard1" x="-0" y="0" width="75.951" height="35.546"/></clipPath><g clip-path="url(#_clip1)"><path d="M38,35.773c-0,-10.602 -7.176,-17.773 -17.926,-17.773c10.75,-0 17.926,-7.176 17.926,-17.773c-0,10.602 7.176,17.773 17.926,17.773c-10.75,-0 -17.926,7.176 -17.926,17.773Zm-31.074,-11.977c-0.727,-3.875 10.773,-9.301 25.699,-12.102c-18.449,3.449 -32.801,9.398 -32.074,13.301c0.727,3.898 16.273,4.25 34.699,0.824c-14.898,2.774 -27.574,1.875 -28.324,-2.023l-0,-0Zm62.148,-11.602c-0.727,-3.898 -13.426,-4.801 -28.324,-2.023c18.449,-3.426 33.977,-3.075 34.699,0.824c0.727,3.898 -13.625,9.851 -32.074,13.301c14.926,-2.801 26.426,-8.227 25.699,-12.102l-0,-0Z"/></g></svg>