<?xml version="1.0" encoding="UTF-8" standalone="no"?><!DOCTYPE svg PUBLIC "-//W3C//DTD SVG 1.1//EN" "http://www.w3.org/Graphics/SVG/1.1/DTD/svg11.dtd"><svg width="100%" height="100%" viewBox="0 0 85 140" version="1.1" xmlns="http://www.w3.org/2000/svg" xmlns:xlink="http://www.w3.org/1999/xlink" xml:space="preserve" xmlns:serif="http://www.serif.com/" style="fill-rule:evenodd;clip-rule:evenodd;stroke-linejoin:round;stroke-miterlimit:2;"><g id="nav-icon--shop" opacity="0.57"><path d="M53.465,53.683l-27.652,18.12c-0.627,0.41 -0.81,1.266 -0.409,1.911c0.27,0.435 0.737,0.664 1.204,0.64c0.226,-0.011 0.451,-0.081 0.654,-0.214l27.652,-18.12c0.627,-0.411 0.809,-1.266 0.409,-1.912c-0.401,-0.644 -1.233,-0.835 -1.858,-0.425Z" style="fill:url(#_Linear1);fill-rule:nonzero;"/><path d="M58.52,42.373l-33.709,21.495c-0.764,0.486 -0.988,1.5 -0.502,2.262c0.329,0.516 0.897,0.786 1.466,0.757c0.275,-0.014 0.549,-0.097 0.797,-0.255l33.71,-21.494c0.763,-0.487 0.988,-1.5 0.501,-2.264c-0.487,-0.762 -1.501,-0.986 -2.263,-0.501Z" style="fill:url(#_Linear2);fill-rule:nonzero;"/><path d="M63.394,63.85l-43.045,32.157l0.301,5.967c0.039,0.78 0.59,1.123 0.825,1.233c0.235,0.113 0.849,0.321 1.475,-0.143l38.242,-28.229c0.73,-0.536 1.753,-0.383 2.292,0.345c0.537,0.728 0.383,1.755 -0.345,2.293l-38.242,28.228c-0.762,0.563 -1.656,0.873 -2.567,0.919c-0.763,0.039 -1.539,-0.11 -2.258,-0.449c-1.575,-0.746 -2.608,-2.29 -2.696,-4.031l-2.29,-45.393c-0.034,-0.692 -0.524,-0.993 -0.734,-1.09c-0.208,-0.096 -0.756,-0.277 -1.307,0.141l-5.15,3.911c-0.719,0.549 -1.748,0.409 -2.296,-0.314c-0.548,-0.721 -0.407,-1.749 0.314,-2.297l5.149,-3.911c1.348,-1.023 3.138,-1.217 4.673,-0.502c1.534,0.713 2.54,2.207 2.626,3.897l0.205,4.081l44.115,-28.448c2.031,-1.311 4.715,0.093 4.799,2.508l0.669,19.212c0.135,3.884 -1.641,7.588 -4.755,9.915Zm-1.628,24.888c-0.246,1.82 -1.921,3.096 -3.742,2.85c-1.82,-0.246 -3.095,-1.922 -2.85,-3.742c0.246,-1.82 1.922,-3.096 3.742,-2.85c1.82,0.246 3.096,1.921 2.85,3.742Zm-24.876,18.206c-0.247,1.82 -1.921,3.097 -3.742,2.85c-1.82,-0.246 -3.096,-1.922 -2.85,-3.742c0.247,-1.82 1.921,-3.096 3.742,-2.85c1.82,0.247 3.096,1.922 2.85,3.742Zm25.334,-104.891l-50.877,34.758c-6.838,4.672 -10.929,12.42 -10.929,20.703l0,66.604c0,8.131 9.108,12.938 15.821,8.351l50.876,-34.758c6.839,-4.672 10.929,-12.42 10.929,-20.703l0,-66.603c0,-8.131 -9.107,-12.939 -15.82,-8.352Z" style="fill:url(#_Linear3);fill-rule:nonzero; filter:url(#shadow);"/></g><defs><filter id="shadow"><feDropShadow dx="4" dy="2" stdDeviation="2.2" flood-opacity="0.5" />
    </filter><linearGradient id="_Linear1" x1="0" y1="0" x2="1" y2="0" gradientUnits="userSpaceOnUse" gradientTransform="matrix(0,20.8892,-20.8892,0,40.3637,53.4669)"><stop offset="0" style="stop-color:#fff;stop-opacity:1"/><stop offset="1" style="stop-color:#c4c6c8;stop-opacity:1"/></linearGradient><linearGradient id="_Linear2" x1="0" y1="0" x2="1" y2="0" gradientUnits="userSpaceOnUse" gradientTransform="matrix(0,24.7719,-24.7719,0,42.5461,42.1172)"><stop offset="0" style="stop-color:#fff;stop-opacity:1"/><stop offset="1" style="stop-color:#c4c6c8;stop-opacity:1"/></linearGradient><linearGradient id="_Linear3" x1="0" y1="0" x2="1" y2="0" gradientUnits="userSpaceOnUse" gradientTransform="matrix(0,133.978,-133.978,0,39.2314,0.272501)"><stop offset="0" style="stop-color:#fff;stop-opacity:1"/><stop offset="1" style="stop-color:#c4c6c8;stop-opacity:1"/></linearGradient></defs></svg>