<?xml version="1.0" encoding="UTF-8" standalone="no"?><!DOCTYPE svg PUBLIC "-//W3C//DTD SVG 1.1//EN" "http://www.w3.org/Graphics/SVG/1.1/DTD/svg11.dtd"><svg width="100%" height="100%" viewBox="0 0 85 140" version="1.1" xmlns="http://www.w3.org/2000/svg" xmlns:xlink="http://www.w3.org/1999/xlink" xml:space="preserve" xmlns:serif="http://www.serif.com/" style="fill-rule:evenodd;clip-rule:evenodd;stroke-linejoin:round;stroke-miterlimit:2;"><g id="nav-icon--info" opacity="0.57"><path d="M72.644,53.392c-5.598,-9.158 -15.689,-15.285 -27.185,-15.285c-17.555,0 -31.837,14.283 -31.837,31.837c0,17.555 14.282,31.837 31.837,31.837c1.372,0 2.72,-0.097 4.047,-0.266l-8.555,5.844c-18.666,-2.235 -33.186,-18.156 -33.186,-37.415c-0,-20.784 16.909,-37.694 37.694,-37.694c10.675,0 20.32,4.468 27.185,11.623l-0,9.519Zm-22.71,6.19l0,26.642c0,1.967 -1.594,3.562 -3.561,3.562l-1.828,-0c-1.968,-0 -3.562,-1.595 -3.562,-3.562l-0,-26.642c-0,-1.967 1.594,-3.562 3.562,-3.562l1.828,0c1.967,0 3.561,1.595 3.561,3.562Zm-4.475,-6.93c-2.705,0 -4.898,-2.192 -4.898,-4.896c0,-2.706 2.193,-4.898 4.898,-4.898c2.705,0 4.897,2.192 4.897,4.898c-0,2.704 -2.192,4.896 -4.897,4.896Zm-0,41.635c-13.019,0 -23.609,-10.591 -23.609,-23.61c-0,-10.136 6.421,-18.799 15.408,-22.138c0.023,0.228 0.058,0.453 0.105,0.675c-8.667,3.28 -14.847,11.662 -14.847,21.463c-0,12.651 10.292,22.943 22.943,22.943c12.65,0 22.943,-10.292 22.943,-22.943c-0,-9.826 -6.212,-18.226 -14.914,-21.489c0.049,-0.221 0.08,-0.448 0.105,-0.676c9.022,3.322 15.475,12.004 15.475,22.165c0,13.019 -10.59,23.61 -23.609,23.61Zm16.765,-92.054l-50.877,34.758c-6.838,4.672 -10.929,12.421 -10.929,20.703l0,66.604c0,8.13 9.108,12.938 15.821,8.352l50.876,-34.759c6.839,-4.672 10.929,-12.42 10.929,-20.702l0,-66.605c0,-8.13 -9.107,-12.938 -15.82,-8.351Z" style="fill:url(#_Linear1);fill-rule:nonzero; filter:url(#shadow);"/></g><defs><filter id="shadow"><feDropShadow dx="4" dy="2" stdDeviation="2.2" flood-opacity="0.5" />
    </filter><linearGradient id="_Linear1" x1="0" y1="0" x2="1" y2="0" gradientUnits="userSpaceOnUse" gradientTransform="matrix(0,133.978,-133.978,0,39.2314,0.452339)"><stop offset="0" style="stop-color:#fff;stop-opacity:1"/><stop offset="1" style="stop-color:#c4c6c8;stop-opacity:1"/></linearGradient></defs></svg>