<?xml version="1.0" encoding="UTF-8" standalone="no"?><!DOCTYPE svg PUBLIC "-//W3C//DTD SVG 1.1//EN" "http://www.w3.org/Graphics/SVG/1.1/DTD/svg11.dtd"><svg width="100%" height="100%" viewBox="0 0 84 188" version="1.1" xmlns="http://www.w3.org/2000/svg" xmlns:xlink="http://www.w3.org/1999/xlink" xml:space="preserve" xmlns:serif="http://www.serif.com/" style="fill-rule:evenodd;clip-rule:evenodd;stroke-linejoin:round;stroke-miterlimit:2;"><g id="nav-icon--case-studies" opacity="0.57"><path d="M75.75,62.27l-17.714,-9.234c-0.674,-0.351 -1.429,-0.527 -2.184,-0.527c-0.757,0 -1.514,0.176 -2.189,0.529l-32.512,16.978c-0.557,0.29 -1.011,0.704 -1.337,1.189l36.003,17.173l19.933,-9.527l0,0.981l-19.899,9.51l0,40.89c0.843,-0.001 1.685,-0.185 2.453,-0.552l15.941,-7.628c-0.515,1.304 -1.156,2.56 -1.916,3.756l-12.756,6.104c-1.167,0.558 -2.448,0.838 -3.729,0.838c-1.278,0 -2.554,-0.277 -3.72,-0.833l-32.388,-15.448c-1.996,-0.953 -3.236,-2.827 -3.236,-4.893l-0,-38.551c-0,-2.147 1.262,-4.139 3.294,-5.198l32.512,-16.978c2.184,-1.14 4.899,-1.142 7.085,-0.004l16.359,8.528l0,2.897Zm-46.503,73.825l-21.294,0l-0,-22.044l5.094,0l-0,16.951l16.2,-0l0,5.093Zm-21.294,-86.437l21.294,-0l0,5.093l-16.2,-0l-0,16.951l-5.094,-0l-0,-22.044Zm53.899,-47.41l-50.876,34.759c-6.839,4.671 -10.929,12.42 -10.929,20.702l0,114.221c0,8.131 9.108,12.938 15.821,8.351l50.875,-34.758c6.839,-4.672 10.929,-12.42 10.929,-20.703l0,-114.22c0,-8.131 -9.106,-12.938 -15.82,-8.352Z" style="fill:url(#_Linear1);fill-rule:nonzero; filter:url(#shadow);"/></g><defs><filter id="shadow"><feDropShadow dx="4" dy="2" stdDeviation="2.2" flood-opacity="0.5" />
    </filter><linearGradient id="_Linear1" x1="0" y1="0" x2="1" y2="0" gradientUnits="userSpaceOnUse" gradientTransform="matrix(0,181.594,-181.594,0,38.8598,0.467537)"><stop offset="0" style="stop-color:#fff;stop-opacity:1"/><stop offset="1" style="stop-color:#c4c6c8;stop-opacity:1"/></linearGradient></defs></svg>