<?xml version="1.0" encoding="UTF-8" standalone="no"?><!DOCTYPE svg PUBLIC "-//W3C//DTD SVG 1.1//EN" "http://www.w3.org/Graphics/SVG/1.1/DTD/svg11.dtd"><svg width="100%" height="100%" viewBox="0 0 85 140" version="1.1" xmlns="http://www.w3.org/2000/svg" xmlns:xlink="http://www.w3.org/1999/xlink" xml:space="preserve" xmlns:serif="http://www.serif.com/" style="fill-rule:evenodd;clip-rule:evenodd;stroke-linejoin:round;stroke-miterlimit:2;"><g id="nav-icon--vega" opacity="0.57"><path d="M74.143,70.53l-7.682,14.414c-0.374,0.702 -1.105,1.141 -1.9,1.141l-0.956,-0c-1.114,-0 -2.044,-0.851 -2.144,-1.961l-1.294,-14.414c-0.113,-1.26 0.88,-2.345 2.144,-2.345l0.493,-0c1.178,-0 2.137,0.946 2.153,2.123l0.078,5.739c0.015,1.142 1.57,1.47 2.044,0.429l3.206,-7.032c0.349,-0.767 1.115,-1.259 1.959,-1.259c1.624,-0 2.663,1.731 1.899,3.165Zm-15.276,-1.211c-0.165,0.732 -0.815,1.251 -1.565,1.251l-1.889,0c-0.751,0 -1.401,0.522 -1.565,1.254l-2.902,13.007c-0.164,0.733 -0.814,1.254 -1.565,1.254l-1.27,-0c-1.028,-0 -1.79,-0.953 -1.564,-1.956l2.615,-11.603c0.226,-1.002 -0.536,-1.956 -1.563,-1.956l-0.539,0c-1.021,0 -1.781,-0.94 -1.567,-1.938c0.157,-0.739 0.81,-1.267 1.567,-1.267l10.242,-0c1.027,-0 1.79,0.952 1.565,1.954Zm-54.873,35.057l0,-27.134l7.092,-18.912c0.415,-1.173 0.76,-2.624 0.208,-3.868l23.004,-0l-11.329,26.251c-0.414,1.382 -0.829,3.179 -0.345,3.801c8.358,-2.972 15.267,-36.545 44.765,-34.266l0.207,1.52c-13.955,-2.28 -25.837,18.79 -39.032,32.814c-5.487,5.914 -14.31,17.256 -24.57,19.794Zm57.858,-102.518l-50.876,34.759c-6.839,4.672 -10.929,12.42 -10.929,20.702l0,66.605c0,8.131 9.107,12.938 15.821,8.351l50.875,-34.758c6.839,-4.672 10.929,-12.421 10.929,-20.703l0,-66.604c0,-8.13 -9.106,-12.938 -15.82,-8.352Z" style="fill:url(#_Linear1);fill-rule:nonzero; filter:url(#shadow);"/></g><defs><filter id="shadow"><feDropShadow dx="4" dy="2" stdDeviation="2.2" flood-opacity="0.5" />
    </filter><linearGradient id="_Linear1" x1="0" y1="0" x2="1" y2="0" gradientUnits="userSpaceOnUse" gradientTransform="matrix(0,133.977,-133.977,0,38.8598,0.0783005)"><stop offset="0" style="stop-color:#fff;stop-opacity:1"/><stop offset="1" style="stop-color:#c4c6c8;stop-opacity:1"/></linearGradient></defs></svg>