<?xml version="1.0" encoding="UTF-8" standalone="no"?><!DOCTYPE svg PUBLIC "-//W3C//DTD SVG 1.1//EN" "http://www.w3.org/Graphics/SVG/1.1/DTD/svg11.dtd"><svg width="100%" height="100%" viewBox="0 0 85 140" version="1.1" xmlns="http://www.w3.org/2000/svg" xmlns:xlink="http://www.w3.org/1999/xlink" xml:space="preserve" xmlns:serif="http://www.serif.com/" style="fill-rule:evenodd;clip-rule:evenodd;stroke-linejoin:round;stroke-miterlimit:2;"><g id="nav-icon--contact" opacity="0.57"><path d="M63.23,33.412l0,-16.053l-10.203,6.553l-0,15.924l5.101,-9.403l5.102,2.979Z" style="fill:url(#_Linear1);fill-rule:nonzero;"/><path d="M67.06,59.903l-0,8.666l-43.642,28.884l-0,-8.666l43.642,-28.884Zm5.47,-13.545l-18.399,12.568c-1.885,1.288 -4.453,1.08 -6.108,-0.492l-4.617,-4.389c-0.787,-0.747 -1.796,-1.13 -2.813,-1.13c-0.782,-0 -1.57,0.226 -2.265,0.688l-22.919,15.215c-1.828,1.214 -2.92,3.249 -2.92,5.444l-0,45.801c-0,0.703 0.371,1.321 0.993,1.651c0.622,0.329 1.34,0.292 1.924,-0.102l56.5,-38.169c-0.321,1.373 -0.765,2.708 -1.322,3.991l-53.742,36.305c-0.749,0.505 -1.614,0.761 -2.483,0.761c-0.712,-0 -1.427,-0.172 -2.082,-0.52c-1.452,-0.771 -2.355,-2.272 -2.355,-3.917l0,-45.801c0,-3.057 1.521,-5.892 4.068,-7.583l8.597,-5.707l-0,-18.869l45.304,-29.098l-0,33.415l4.639,-3.17l0,3.108Zm-10.306,-44.377l-50.877,34.758c-6.838,4.672 -10.929,12.42 -10.929,20.703l0,66.603c0,8.131 9.108,12.939 15.821,8.353l50.876,-34.759c6.839,-4.672 10.929,-12.42 10.929,-20.703l0,-66.604c0,-8.131 -9.107,-12.938 -15.82,-8.351Z" style="fill:url(#_Linear2);fill-rule:nonzero; filter:url(#shadow);"/></g><defs><filter id="shadow"><feDropShadow dx="4" dy="2" stdDeviation="2.2" flood-opacity="0.5" />
    </filter><linearGradient id="_Linear1" x1="0" y1="0" x2="1" y2="0" gradientUnits="userSpaceOnUse" gradientTransform="matrix(0,22.4776,-22.4776,0,58.1284,17.3585)"><stop offset="0" style="stop-color:#fff;stop-opacity:1"/><stop offset="1" style="stop-color:#c4c6c8;stop-opacity:1"/></linearGradient><linearGradient id="_Linear2" x1="0" y1="0" x2="1" y2="0" gradientUnits="userSpaceOnUse" gradientTransform="matrix(0,133.977,-133.977,0,39.2314,0.200111)"><stop offset="0" style="stop-color:#fff;stop-opacity:1"/><stop offset="1" style="stop-color:#c4c6c8;stop-opacity:1"/></linearGradient></defs></svg>