<?xml version="1.0" encoding="UTF-8" standalone="no"?>
<!DOCTYPE svg PUBLIC "-//W3C//DTD SVG 1.1//EN" "http://www.w3.org/Graphics/SVG/1.1/DTD/svg11.dtd">
<svg width="100%" height="100%" viewBox="0 0 318 30" version="1.1" xmlns="http://www.w3.org/2000/svg" xmlns:xlink="http://www.w3.org/1999/xlink" xml:space="preserve" xmlns:serif="http://www.serif.com/" style="fill-rule:evenodd;clip-rule:evenodd;stroke-linejoin:round;stroke-miterlimit:2;">
    <rect id="Artboard1" x="0" y="0" width="318" height="30" style="fill:none;"/>
    <clipPath id="_clip1">
        <rect id="Artboard11" serif:id="Artboard1" x="0" y="0" width="318" height="30"/>
    </clipPath>
    <g clip-path="url(#_clip1)">
        <circle cx="6" cy="24" r="6" style="fill:white;"/>
        <circle cx="24" cy="6" r="6" style="fill:white;"/>
        <circle cx="42" cy="24" r="6" style="fill:white;"/>
        <circle cx="60" cy="6" r="6" style="fill:white;"/>
        <circle cx="78" cy="24" r="6" style="fill:white;"/>
        <circle cx="96" cy="6" r="6" style="fill:white;"/>
        <circle cx="114" cy="24" r="6" style="fill:white;"/>
        <circle cx="132" cy="6" r="6" style="fill:white;"/>
        <circle cx="150" cy="24" r="6" style="fill:white;"/>
        <circle cx="168" cy="6" r="6" style="fill:white;"/>
        <circle cx="186" cy="24" r="6" style="fill:white;"/>
        <circle cx="204" cy="6" r="6" style="fill:white;"/>
        <circle cx="222" cy="24" r="6" style="fill:white;"/>
        <circle cx="240" cy="6" r="6" style="fill:white;"/>
        <circle cx="258" cy="24" r="6" style="fill:white;"/>
        <circle cx="276" cy="6" r="6" style="fill:white;"/>
        <circle cx="294" cy="24" r="6" style="fill:white;"/>
        <circle cx="312" cy="6" r="6" style="fill:white;"/>
    </g>
</svg>
