<?xml version="1.0" encoding="UTF-8" standalone="no"?><!DOCTYPE svg PUBLIC "-//W3C//DTD SVG 1.1//EN" "http://www.w3.org/Graphics/SVG/1.1/DTD/svg11.dtd"><svg width="100%" height="100%" viewBox="0 0 120 90" version="1.1" xmlns="http://www.w3.org/2000/svg" xmlns:xlink="http://www.w3.org/1999/xlink" xml:space="preserve" xmlns:serif="http://www.serif.com/" style="fill-rule:evenodd;clip-rule:evenodd;stroke-linejoin:round;stroke-miterlimit:2;"><path d="M120,45c0,-0.81 -0.49,-1.54 -1.24,-1.85l-17.28,-7.15l17.28,-7.15c0.75,-0.31 1.24,-1.04 1.24,-1.85c0,-0.81 -0.49,-1.54 -1.24,-1.85l-58,-24c-0.49,-0.2 -1.04,-0.2 -1.53,0l-57.99,24c-0.75,0.31 -1.24,1.04 -1.24,1.85c-0,0.81 0.49,1.54 1.24,1.85l17.28,7.15l-17.28,7.15c-0.75,0.31 -1.24,1.04 -1.24,1.85c-0,0.81 0.49,1.54 1.24,1.85l17.28,7.15l-17.28,7.15c-0.75,0.31 -1.24,1.04 -1.24,1.85c-0,0.81 0.49,1.54 1.24,1.85l58,24c0.25,0.1 0.5,0.15 0.76,0.15c0.26,0 0.52,-0.05 0.76,-0.15l58,-24c0.75,-0.31 1.24,-1.04 1.24,-1.85c0,-0.81 -0.49,-1.54 -1.24,-1.85l-17.28,-7.15l17.28,-7.15c0.75,-0.31 1.24,-1.04 1.24,-1.85Zm-112.77,-18l52.77,-21.84l52.77,21.84l-16.52,6.84l-35.49,-14.68c-0.49,-0.2 -1.04,-0.2 -1.53,0l-35.49,14.68l-16.52,-6.84l0.01,0Zm52.77,21.84l-9.27,-3.84l9.27,-3.84l9.27,3.84l-9.27,3.84Zm14.5,-1.67l16.52,6.84l-31.02,12.84l-31.02,-12.84l16.52,-6.84l13.74,5.68c0.25,0.1 0.5,0.15 0.76,0.15c0.26,0 0.52,-0.05 0.76,-0.15l13.74,-5.68Zm-13.74,-10.01c-0.49,-0.2 -1.04,-0.2 -1.53,0l-13.74,5.68l-16.52,-6.84l31.02,-12.84l31.02,12.84l-16.52,6.84l-13.74,-5.68l0.01,0Zm-53.53,7.85l16.52,-6.84l16.52,6.84l-16.52,6.84l-16.52,-6.84Zm105.54,18l-52.77,21.84l-52.77,-21.84l16.52,-6.84l35.49,14.68c0.25,0.1 0.5,0.15 0.76,0.15c0.26,0 0.52,-0.05 0.76,-0.15l35.49,-14.68l16.52,6.84Zm-16.52,-11.16l-16.52,-6.84l16.52,-6.84l16.52,6.84l-16.52,6.84Z" style="fill-rule:nonzero;"/></svg>