<?xml version="1.0" encoding="UTF-8" standalone="no"?><!DOCTYPE svg PUBLIC "-//W3C//DTD SVG 1.1//EN" "http://www.w3.org/Graphics/SVG/1.1/DTD/svg11.dtd"><svg width="100%" height="100%" viewBox="0 0 200 424" version="1.1" xmlns="http://www.w3.org/2000/svg" xmlns:xlink="http://www.w3.org/1999/xlink" xml:space="preserve" xmlns:serif="http://www.serif.com/" style="fill-rule:evenodd;clip-rule:evenodd;stroke-linejoin:round;stroke-miterlimit:2;"><path id="sidebar-deco" d="M199.5,45.222l-10.245,0.012c-8.881,-0 -17.568,2.713 -24.987,7.804l-136.515,93.674c-14.369,9.859 -23.253,26.602 -23.253,44.538l0,202.5c0,14.145 11.186,25.5 24.75,25.5l102.75,-0c4.712,-0 9.183,-1.278 13.011,-4.028l54.489,-39.472l-0,48c-0,0 -171.855,-0 -171.855,-0c-15.034,-0 -27.645,-12.71 -27.645,-28.388l-0,-205.987c-0,-18.598 9.402,-35.854 24.312,-46.061l129.379,-88.574c11.897,-8.145 18.809,-21.898 18.809,-36.74l0,-18l27,0l-0,45.222Z" style="fill-rule:nonzero;"/></svg>