<?xml version="1.0" encoding="UTF-8" standalone="no"?><!DOCTYPE svg PUBLIC "-//W3C//DTD SVG 1.1//EN" "http://www.w3.org/Graphics/SVG/1.1/DTD/svg11.dtd"><svg width="100%" height="100%" viewBox="0 0 485 485" version="1.1" xmlns="http://www.w3.org/2000/svg" xmlns:xlink="http://www.w3.org/1999/xlink" xml:space="preserve" xmlns:serif="http://www.serif.com/" style="fill-rule:evenodd;clip-rule:evenodd;stroke-linejoin:round;stroke-miterlimit:2;"><g><path d="M460.8,212l-116.2,-32.8c-18.7,-5.3 -33.6,-20.2 -38.9,-38.9l-32.7,-116.1c-3.9,-13.8 -15.7,-22.7 -30,-22.7c-14.3,0 -26.1,8.9 -30,22.7l-32.8,116.2c-5.3,18.7 -20.2,33.6 -38.9,38.9l-116.1,32.7c-13.8,3.9 -22.7,15.7 -22.7,30c-0,14.3 8.9,26.1 22.7,30l116.2,32.8c18.7,5.3 33.6,20.2 38.9,38.9l32.7,116.1c3.9,13.8 15.7,22.7 30,22.7c14.3,0 26.1,-8.9 30,-22.7l32.8,-116.2c5.3,-18.7 20.2,-33.6 38.9,-38.9l116.1,-32.7c13.8,-3.9 22.7,-15.7 22.7,-30c-0,-14.3 -8.9,-26.1 -22.7,-30Z" style="fill-rule:nonzero;"/></g></svg>