<?xml version="1.0" encoding="UTF-8" standalone="no"?><!DOCTYPE svg PUBLIC "-//W3C//DTD SVG 1.1//EN" "http://www.w3.org/Graphics/SVG/1.1/DTD/svg11.dtd"><svg width="100%" height="100%" viewBox="0 0 515 519" version="1.1" xmlns="http://www.w3.org/2000/svg" xmlns:xlink="http://www.w3.org/1999/xlink" xml:space="preserve" xmlns:serif="http://www.serif.com/" style="fill-rule:evenodd;clip-rule:evenodd;stroke-linejoin:round;stroke-miterlimit:2;"><path d="M257.54,515.09l-3.91,-18c-17.92,-82.61 -34.06,-133.79 -67.94,-167.68c-33.88,-33.89 -85.07,-50 -167.68,-67.94l-18.01,-3.93l18,-3.91c82.61,-17.92 133.79,-34.06 167.68,-67.94c33.89,-33.88 50,-85.07 67.94,-167.68l3.91,-18l3.91,18c17.92,82.61 34.06,133.79 67.94,167.68c33.88,33.89 85.07,50 167.68,67.94l18,3.91l-18,3.91c-82.61,17.92 -133.79,34.06 -167.68,67.94c-33.89,33.88 -50,85.07 -67.94,167.68l-3.9,18.02Zm-220.21,-257.55c73.9,16.81 121.27,33.44 154,66.19c32.73,32.75 49.38,80.13 66.19,154c16.81,-73.89 33.45,-121.27 66.19,-154c32.74,-32.73 80.13,-49.38 154,-66.19c-73.9,-16.81 -121.27,-33.44 -154,-66.19c-32.73,-32.75 -49.38,-80.13 -66.19,-154c-16.81,73.89 -33.45,121.27 -66.19,154c-32.74,32.73 -80.11,49.38 -154,66.19Z" style="fill-rule:nonzero;"/></svg>