<?xml version="1.0" encoding="UTF-8" standalone="no"?><!DOCTYPE svg PUBLIC "-//W3C//DTD SVG 1.1//EN" "http://www.w3.org/Graphics/SVG/1.1/DTD/svg11.dtd"><svg width="100%" height="100%" viewBox="0 0 76 43" version="1.1" xmlns="http://www.w3.org/2000/svg" xmlns:xlink="http://www.w3.org/1999/xlink" xml:space="preserve" xmlns:serif="http://www.serif.com/" style="fill-rule:evenodd;clip-rule:evenodd;stroke-linejoin:round;stroke-miterlimit:2;"><path d="M19.773,19.199c-4.125,-4.148 -2.824,-12.449 -5.699,-15.324c-3.102,-3.102 -8.149,-3.102 -11.25,-0c-3.102,3.102 -3.102,8.148 -0,11.25c2.875,2.852 11.199,1.574 15.324,5.699c4.125,4.125 2.851,12.449 5.699,15.324c3.102,3.102 8.148,3.102 11.25,0c3.102,-3.101 3.102,-8.148 -0,-11.25c-2.875,-2.875 -11.176,-1.574 -15.324,-5.699Zm38.074,3.977c-4.125,-4.125 -2.852,-12.449 -5.699,-15.324c-3.102,-3.102 -8.149,-3.102 -11.25,-0c-3.102,3.101 -3.102,8.148 -0,11.25c2.875,2.875 11.199,1.601 15.324,5.726c4.125,4.125 2.824,12.426 5.699,15.301c3.102,3.102 8.148,3.102 11.25,0c3.102,-3.101 3.102,-8.125 0,-11.25c-2.875,-2.851 -11.176,-1.574 -15.324,-5.699l0,-0.004Zm-19.023,-2c-4.125,-4.125 -2.852,-12.449 -5.727,-15.301c-3.101,-3.125 -8.125,-3.125 -11.227,-0c-3.125,3.101 -3.125,8.125 0,11.227c2.852,2.875 11.176,1.601 15.301,5.726c4.125,4.125 2.852,12.449 5.727,15.301c3.102,3.125 8.125,3.125 11.227,0c3.125,-3.101 3.125,-8.125 0,-11.227c-2.852,-2.875 -11.176,-1.601 -15.301,-5.726Z"/></svg>