<?xml version="1.0" encoding="UTF-8" standalone="no"?><!DOCTYPE svg PUBLIC "-//W3C//DTD SVG 1.1//EN" "http://www.w3.org/Graphics/SVG/1.1/DTD/svg11.dtd"><svg width="100%" height="100%" viewBox="0 0 98 98" version="1.1" xmlns="http://www.w3.org/2000/svg" xmlns:xlink="http://www.w3.org/1999/xlink" xml:space="preserve" xmlns:serif="http://www.serif.com/" style="fill-rule:evenodd;clip-rule:evenodd;stroke-miterlimit:10;"><g id="Vega-logo-pink"><path d="M93.742,49.404c0,24.762 -20.074,44.836 -44.836,44.836c-24.762,0 -44.836,-20.074 -44.836,-44.836c0,-24.762 20.074,-44.836 44.836,-44.836c24.762,0 44.836,20.074 44.836,44.836" style="fill:#efa0d5;fill-rule:nonzero;"/><path d="M93.742,49.404c0,-24.746 -20.09,-44.836 -44.836,-44.836c-24.745,0 -44.836,20.09 -44.836,44.836c0,24.746 20.091,44.836 44.836,44.836c24.746,0 44.836,-20.09 44.836,-44.836Z" style="fill:none;stroke:#000;stroke-width:6px;"/><path d="M53.685,55.637c-5.745,6.192 -15.449,18.832 -26.557,18.769c-4.469,-0 -3.001,-7.661 -1.086,-12.385l11.492,-30.643c0.383,-1.086 0.702,-2.426 0.191,-3.575l21.259,-0l-10.47,24.259c-0.383,1.277 -0.766,2.937 -0.319,3.511c7.724,-2.745 14.108,-33.771 41.368,-31.664l0.192,1.404c-12.896,-2.107 -23.876,17.364 -36.07,30.324" style="fill-rule:nonzero;"/></g></svg>