<?xml version="1.0" encoding="UTF-8" standalone="no"?>
<!DOCTYPE svg PUBLIC "-//W3C//DTD SVG 1.1//EN" "http://www.w3.org/Graphics/SVG/1.1/DTD/svg11.dtd">
<svg width="100%" height="100%" viewBox="0 0 108 108" version="1.1" xmlns="http://www.w3.org/2000/svg" xmlns:xlink="http://www.w3.org/1999/xlink" xml:space="preserve" xmlns:serif="http://www.serif.com/" style="fill-rule:evenodd;clip-rule:evenodd;stroke-linejoin:round;stroke-miterlimit:2;">
    <g transform="matrix(1,0,0,1,-15,-174)">
        <g transform="matrix(1.33333,0,0,1.33333,0,0)">
            <g id="vega-logo-mobile">
                <g transform="matrix(51.7178,0,0,51.7178,19.875,190.644)">
                    <path d="M1.151,-0.754L1.148,-0.776C0.721,-0.809 0.621,-0.323 0.5,-0.28C0.493,-0.289 0.499,-0.315 0.505,-0.335L0.669,-0.715L0.336,-0.715C0.344,-0.697 0.339,-0.676 0.333,-0.659L0.153,-0.179C0.123,-0.105 0.1,0.015 0.17,0.015C0.344,0.016 0.496,-0.182 0.586,-0.279C0.777,-0.482 0.949,-0.787 1.151,-0.754Z" style="fill-rule:nonzero;"/>
                </g>
                <g transform="matrix(1,0,0,1,51.8235,203.714)">
                    <path d="M0,-65.357C-18.019,-65.357 -32.678,-50.698 -32.678,-32.679C-32.678,-14.66 -18.019,-0.001 0,-0.001C18.019,-0.001 32.678,-14.66 32.678,-32.679C32.678,-50.698 18.019,-65.357 0,-65.357M0,7.286C-22.036,7.286 -39.965,-10.642 -39.965,-32.679C-39.965,-54.715 -22.036,-72.643 0,-72.643C22.036,-72.643 39.965,-54.715 39.965,-32.679C39.965,-10.642 22.036,7.286 0,7.286" style="fill-rule:nonzero;"/>
                </g>
            </g>
        </g>
    </g>
</svg>
